<?xml version="1.0" encoding="UTF-8"?>
<svg xmlns="http://www.w3.org/2000/svg" viewBox="0 0 609.69 409.98">
  <defs>
    <style>
      .cls-1, .cls-2 {
        stroke-width: 0px;
      }

      .cls-2 {
        fill: #a36007;
      }
    </style>
  </defs>
  <g id="Layer_4" data-name="Layer 4">
    <g>
      <g>
        <path class="cls-2" d="m88,194.64c7.48-.19,14.96-.39,22.44-.58,14.33-.37,21.12-20.68,7.57-27.95-6.76-3.63-13.64-4.54-21.19-5.13.04,0-4.63-.53-2.43-.18-1.39-.23-2.76-.57-4.12-.95-2.88-.8-5.01-1.59-6.71-2.43-5.77-2.86-11.32-6.1-16.89-9.31-2.69-1.55-5.39-3.1-8.08-4.65-1.62-.93-3.23-1.86-4.85-2.79l-1.62-.93c-4.3-2.85-3.24-.19,3.19,8l-2.05,7.57c-1.44,2.89-2.9,2.96-5.01,3.91,1.43-.64,1.7.49-.58.01,2.12.44,4.69.02,6.87.03,5.23.03,10.47.05,15.7.08,10.14.05,20.29.1,30.43.15,20.43.11,40.7.88,61.06,2.64,40.55,3.5,81.18,4.7,121.88,4.66,23.39-.03,46.78-.39,70.17-.75,7.84-.12,15.37-6.81,15-15-.36-8.02-6.59-15.13-15-15-57.28.89-114.67,1.79-171.86-2.28-13.33-.95-26.62-2.33-39.95-3.19-14.41-.93-28.84-1.02-43.28-1.09s-28.13-.14-42.19-.21c-7.09-.04-14.44-.58-20.91,2.93-7.65,4.15-12.21,12.7-9.6,21.33s11.72,12.54,19.06,16.76c6.24,3.59,12.42,7.32,18.78,10.7s13.62,6.81,20.91,8.4c4.23.92,8.56,1.3,12.87,1.63.57.04,3.93.38,1.53.03,1.03.16,2.04.38,3.04.65,1.74.51,1.96.61.68.29l7.57-27.95c-7.48.19-14.96.39-22.44.58s-15.37,6.75-15,15,6.6,15.22,15,15h0Z"/>
        <path class="cls-2" d="m20.32,144.23l-7.56,19.52c9.64,2.66,19.29,5.32,28.93,7.98.65-3.02,1.31-6.05,1.96-9.07,1.57-7.27-1.55-14.83-8.68-17.7s-14.16-.05-18.73,6.14c-3.76,5.09-5.24,11.59-6.91,17.6s-3.26,12.47-4.19,18.87c-1.85,12.71-1.8,26.03-.2,38.78s5.93,26.59,12.16,38.52c6.78,12.99,20.29,17.59,34.2,16.01,7.77-.88,15.39-6.27,15-15-.33-7.37-6.65-15.95-15-15-1.99.23-3.96.33-5.96.41-1.58.06-1.42.56-.43.15l-1.41-.32.9.52c-.76.03-1.8-1.33-.47-.18,1.53,1.32-.17-.34-.58-1.09-.95-1.74-1.46-3.03-1.75-3.71-3.84-9.22-6.79-18.55-7.34-27.65-.51-8.45-1-18.92.21-26.2.86-5.15,2.15-10.22,3.53-15.25.64-2.33,1.29-4.67,1.98-6.98.09-.3.93-2.8.57-2-.32.72,1.48-2.21,1.58-2.34-9.14-3.85-18.28-7.71-27.42-11.56-.65,3.02-1.31,6.05-1.96,9.07-1.65,7.65,2.27,16.58,10.48,18.45s15.41-2.62,18.45-10.48l7.56-19.52c2.84-7.33-3.12-16.78-10.48-18.45-8.59-1.96-15.41,2.62-18.45,10.48h0Z"/>
        <path class="cls-2" d="m57.36,280.86c35.15,2.93,70.44-2.55,105.61-2.85,17.5-.15,35-.07,52.51-.08,17.37-.01,35.03-.86,52.32,1.14,8.34.96,18.2,3.22,27.18,4.48,11.4,1.6,21.99,1.97,33.41.37,8.03-1.13,12.42-11.37,10.48-18.45-2.37-8.64-10.4-11.61-18.45-10.48-14.89,2.09-31.25-3.08-46.84-5.18-17.67-2.37-35.46-1.91-53.25-1.9-34.5.03-68.92-.26-103.36,2.05-19.85,1.33-39.74,2.54-59.61.88-7.84-.65-15.34,7.37-15,15,.39,8.69,6.6,14.3,15,15h0Z"/>
        <path class="cls-2" d="m325.15,282.14c28.04,10.3,57.49,5.94,86.55,4.58,28.82-1.35,57.68-1.44,86.52-.93,7.85.14,15.36-7,15-15s-6.59-14.85-15-15c-28.19-.5-56.39-.42-84.55.84-27.18,1.21-54.76,6.05-80.54-3.42-7.38-2.71-16.76,3.03-18.45,10.48-1.93,8.48,2.58,15.55,10.48,18.45h0Z"/>
        <path class="cls-2" d="m506.67,284.46c16.61.04,33.22.12,49.84.13,8.36,0,17.82.21,25.11-4.43,8.38-5.34,11.18-14.41,12.2-23.73.86-7.83-7.51-15.34-15-15-8.86.4-14.08,6.62-15,15,.33-3.05-.3.17-.35.73-.14,1.54.39-.81.96-1.42l2.9-1.65c.84.09.73.14-.32.17-1.28-.18-3.1.22-4.37.27-5.92.21-11.86.05-17.78.04-12.73-.03-25.46-.07-38.19-.1-7.85-.02-15.36,6.91-15,15s6.59,14.98,15,15h0Z"/>
        <path class="cls-2" d="m553.47,158.16c4.04,2.34,8.03,4.91,12.17,7.05.81.42,1.91.73.56.15.48.21,1.69,1.73.66.38.6.78,1.09,1.75,1.52,2.64-.69-1.43.02.1.2.74,2.65,9.28,3.99,18.17,4.68,27.36.76,10.08.72,20.22-.14,30.3-.41,4.81-.83,8.17-1.68,12.92-.41,2.3-.82,4.62-1.39,6.89-.06.25-.82,2.95-.44,1.82.2-.59,2.16-2.24-.21.05-5.83,5.63-5.66,15.55,0,21.21s15.37,5.65,21.21,0c9.82-9.49,10.64-25.41,12.05-38.18,1.35-12.25,1.5-24.63.44-36.9s-2.23-25.1-6.67-36.37c-2.81-7.12-6.87-12.91-13.2-17.33-4.62-3.23-9.75-5.82-14.62-8.64-7.01-4.06-16.42-1.63-20.52,5.38s-1.65,16.45,5.38,20.52h0Z"/>
        <path class="cls-2" d="m329.34,162.52c32.87,3.16,65.93,3.2,98.8.15,7.79-.72,15.39-6.38,15-15-.35-7.92-6.6-15.26-15-15-10.18.32-20.36.64-30.53.96-7.83.25-15.37,6.72-15,15,.4,8.89,6.62,14.05,15,15,16.54,1.88,33.4.33,49.43-4.12,7.22-2,11.73-9.15,10.74-16.46-1.02-7.57-7.19-12.62-14.73-13.01-3.79-.19-7.57-.39-11.36-.58v30c24.47-.37,48.94-.74,73.41-1.11,5.4-.08,10.81-.2,16.22-.24,2.35-.02,4.71-.01,7.06.09,1.05.05,2.09.12,3.14.19,4.62.3-2.31-.66,2.17.28,1,.21,2,.42,2.98.68-.35-.09,4.26,1.47,2.49.73s2.56,1.44,2.25,1.26c.28.16,2.1,1.66.67.42,3.49,3.01,4.62,5.56,7.06,10.5,4.09,8.26,7.46,17.2,9.82,27.28.51,2.2.95,4.41,1.34,6.63.55,3.14.27,1.71.18.99.18,1.38.29,2.76.38,4.15.17,2.47.24,4.95.18,7.43-.02,1.09-.07,2.19-.15,3.28,0-.03-.58,4.74-.21,2.5-.35,2.14-.82,4.27-1.39,6.36-.36,1.31-.77,2.61-1.23,3.9-.14.4-1.48,3.5-.67,1.76-.43.92-.99,1.8-1.39,2.72-1.4,3.19.84-.74,1.75-1.32,5.84-3.71,9.68-.33,12.81,3.14.63,1.84.67,1.93.12.27l-.31-1.23c.86,2.82.03.79.02-.37-.01-1.49-.03-2.97-.04-4.46-.01-2.57-.02-5.15-.03-7.72-.03-6.11-.06-12.22-.08-18.33-.06-12.6,1.21-26.53-2.81-38.68-4-12.11-13.67-23.85-26.96-25.8-10.1-1.48-18.18,3.87-18.99,14.46-2.62,34.25.85,68.95,9.9,102.08l3.86-14.59c.73-.63,1.41-1.04,2.28-1.45l1.49-.2-1.28-.03c.76-.64,2.17.72.17-.28.84.42,1.34.71,2.11,1.24-.53-.36-1.72-1.55-.65-.28-.78-.93-1.35-2.13-1.92-3.21-1.14-2.15.55,1.71-.26-.61-.34-.96-.64-1.93-.93-2.91-2.75-9.46-3.68-17.33-3.58-27.26.02-2.44.13-4.89.31-7.33.09-1.22.21-2.44.34-3.65.06-.56.34-2.8.1-1.02.68-5.12,1.54-10.21,2.03-15.35.99-10.47-.39-21.2-5.96-30.3-3.59-5.86-10.33-8.44-16.94-6.89-16.76,3.93-18.89,22.11-20.12,36.33-.6,6.88-.84,13.78-.72,20.68s1.17,14.16.83,21.21c-.16,3.31.58-3.42-.25,2.22-.48,3.28.63.07-.79,2.27,1.52-2.36-.75.79-1.23,1.16,2.04-1.56.09-.29-.35-.1,1.65-.71,2.19-.6,3.95-.49l1.25.65c-1.43-.87-1.31-.73.38.43l.99,1.39c-.65-1.19-.74-1.23-.26-.12.42,1.15.4,1.06-.06-.28-.22-.75-.4-1.5-.54-2.27.84,3.63.11-.02.09-.89-.02-1.06.02-2.11.08-3.17s.17-2.11.27-3.17c-.36,3.72.09-.27.19-.9,1.4-8.22,2.62-16.48,3.38-24.79,1.24-13.45,3.28-29.87-4.77-41.67-10.09-14.81-31.94-16.52-42.1-.87-6.61,10.18-5.42,22.4-4.13,33.8,1.69,14.95,3.38,29.91,5.07,44.86.34,3,.8,6.01,1,9.03l.07,1.26c-.06,1.78,0,1.69.2-.29,3.08-2.2,6.16-4.39,9.23-6.59.8-.06,1.52.16,2.16.63-.06.11-1.9-1.04-2.19-1.17-3.08-1.42,1.44,1.89-.81-.57-.82-.89-1.69-1.69-2.45-2.63,2.21,2.74-.32-.85-.69-1.52-.5-.91-.97-1.84-1.39-2.79,1.44,3.21-.15-.73-.3-1.2-.67-2.09-1.21-4.23-1.66-6.38-.27-1.32-.49-2.64-.72-3.96.6,3.48-.1-.89-.15-1.36-.27-2.64-.44-5.28-.57-7.93-.68-14.47-.98-28.95-1.68-43.42-.45-9.44-3.59-17.81-13.24-21.14-7.45-2.57-15.74-.7-22.18,3.62-28.14,18.91-12.46,55.36-4.6,80.68,1.16,3.74,2.38,7.46,3.48,11.21.33,1.13,1.21,6.91,1.03,3.58l.08,1.28c-.07,1.79.03,1.69.3-.3l-.26,1.14c.21-.82.6-1.52,1.17-2.12,1.36-1.75,3.12-2.69,5.53-2.75.98-.07,1.93.08,2.84.46,1.22.97,1.17.84-.14-.38,1.41,2.61-2.35-5.26-1.28-2.24-1.05-2.98-1.78-6.09-2.43-9.18-.55-2.6-.99-5.22-1.38-7.85.41,2.76-.3-2.44-.3-2.37-.19-1.6-.36-3.19-.53-4.79-1.52-14.29-2.48-29.06-7.85-42.54-2.84-7.12-6.29-14.53-12.05-19.78-8.52-7.77-21.68-8.34-29.85.33-11.71,12.43-10.45,33.3-4.94,48.16,2.87,7.75,6.71,14.98,10.65,22.22,1.65,3.03,3.3,6.07,4.8,9.18-.22-.46,2.09,4.66,1.28,2.71.42,1.07.82,2.15,1.19,3.23,1.01,4.18,1.88,1.71,2.62-7.43l6.62-3.86c-1.68.53-1.68.68,0,.46-.9.09-1.81.12-2.71.09-1.79-.13-1.78-.12.05.03-.86-.19-1.7-.44-2.53-.73,2.89.94-.73-.53-1.22-.78-1.41-.98-1.51-.98-.31-.01-.72-.58-1.42-1.2-2.1-1.84-.38-.36-4-4.38-2.37-2.32-.9-1.14-1.68-2.39-2.43-3.62-1.01-1.66-1.93-3.38-2.74-5.15,1.13,2.48-.62-1.88-.8-2.44-5.29-16.86-5.37-34.28-13.79-50.25-3.92-7.43-13.57-8.96-20.52-5.38s-14.9,4.52-23.68,4.94c-10.34.49-20.71.57-31.05.78-21.84.46-43.69.75-65.53.38s-43.62-1.38-65.33-3.53c-20.47-2.03-40.84-5.8-61.44-6.29-11.97-.28-24.14.66-35.8,3.47s-27.06,7.94-29.9,21.54c-1.66,7.94,2.26,16.18,10.48,18.45,17.56,4.86,35.92,4.29,53.97,4.28s37.1-.04,55.65-.06c37.1-.04,74.19-.07,111.29-.11,18.43-.02,36.86-.15,55.29,0,9.1.08,18.21.29,27.3.79,4.54.25,9.08.58,13.61,1,1.94.18,3.88.36,5.82.6-2.07-.26,2.3.56,2.96.67s2.61,1.08.03-.18c.52.25,1.17.51,1.62.89,1.37,1.15-.71-.5-.75-.54-1.42-1.7-2.32-2.58-2.26-5.54.04-2.04.96-3.42,1.92-5.1.07-.12,2.67-2.45.32-.54.95-.78,2.05-.55.27-.26-.74.12-1.71.35-2.4.56.23-.07,2.61-.1.93-.13s-3.32.14-4.96.14c-4.65.01-9.29-.01-13.94-.04-18.58-.14-37.15-.58-55.72-1.25-74.31-2.67-148.43-8.94-222.62-13.72-8.68-.56-17.56-1.14-25.82,2.14-9.03,3.59-16.86,11.28-18.49,21.2-1.77,10.74,2.84,20.63,12.23,26.21,7.02,4.18,15.69,4.69,23.64,4.73,37.24.21,74.48.31,111.72.46,37.24.15,74.48.31,111.72.46,18.37.08,36.74,0,55.1.24,8.3.11,14.82.31,21.92,2.1,3.91.99,6.01,1.7,8.82,3.29,3.8,2.15,3.39,2.18,6.43,5.11.22.21,1.85,2.15.53.43.45.59.85,1.22,1.25,1.85s2.26,4.46,1.45,2.31c.52,1.35.89,2.76,1.19,4.17-.7-3.32-.27,3.91.16.71,4.82-3.67,9.64-7.34,14.46-11.01-48.65-1.31-97.33-2.34-145.97-3.97-23.23-.78-47.32-2.27-69.76-5.38-23.92-3.32-48.3-7.35-72.49-4.65-7.23.81-14.33,2.07-21.41,3.69-6.27,1.44-10.79,2.67-16.57,2.74-1.21.02-2.4-.05-3.61-.09,3.07.12-.82-.16-1.45-.32-.91-.23-1.78-.52-2.67-.79-3.05-.92.96.86-1.48-.74-.76-.5-1.58-.92-2.32-1.45,2.37,1.7-.53-.69-1-1.18,1.88,1.98-.02.16-.32-.7-.5-.95-.44-.76.19.58-.28-.85-.49-1.72-.63-2.6l-18.45,18.45c45.75,6.8,91.81,6.12,137.92,5.08s91.98-2.53,137.96-4.19c26.13-.94,52.26-1.94,78.39-2.94,7.83-.3,15.37-6.69,15-15-.35-7.87-6.6-15.32-15-15-45.64,1.74-91.29,3.49-136.94,4.94-45.29,1.44-90.68,3.2-136,2.91-24.42-.16-49.65-1.21-73.36-4.73-11.55-1.72-20.88,6.4-18.45,18.45s12.51,21.43,23.92,26.03c11.2,4.51,23.23,3.52,34.84,1.24,12.17-2.4,22.37-4.99,34.69-5.22,12.1-.23,24.18.9,36.18,2.39,24.48,3.04,50,6.55,75.23,7.77,25.53,1.24,51.1,1.65,76.64,2.34,28.97.78,57.95,1.56,86.92,2.34,5.83.16,13.62-4.73,14.46-11.01,2.59-19.21-5.86-35.45-21.6-46.44-14.55-10.17-33.65-11.37-50.8-11.52-38.07-.34-76.14-.32-114.21-.48-37.91-.16-75.81-.31-113.72-.47-18.22-.08-36.65.63-54.84-.35-2.96-.16-.64-.1-.03.04-.65-.14-1.3-.26-1.94-.44-.43-.12-3.07-.93-1.21-.33,1.58.51-.08-.18-.39-.39,2.31,1.56,2.43,2.38,2.78,4.99.43,3.17-.15,2.01.39.68-.21.51-1.53,2.5-.44,1.38.91-.94-2.55.84.48-.12-.07.02,2.52-.57,1.21-.35-1.51.25,1.82-.08,2.11-.09,4.48-.12,8.98.33,13.44.62,75.51,4.89,150.95,11.28,226.6,13.79,18.9.63,37.81,1.01,56.72,1.08,7.88.03,16.12.39,23.63-2.42,9.4-3.52,16.51-10.74,17.18-21.14.62-9.53-5.61-18.1-13.98-22.07s-17.97-4.52-27.25-5.27c-18.48-1.51-37.03-1.51-55.56-1.49-37.75.03-75.51.08-113.26.11s-75.55,1.07-113.24-.01c-8.69-.25-14.92-.82-23.18-3.1,3.49,6.15,6.98,12.3,10.48,18.45-.13.6-2.68,3.68-3.16,3.61.23.03,2.07-1.18,2.51-1.38-1.6.73,3.93-1.25,4.46-1.42,4.5-1.38,9.15-2.45,13.82-3.08,1.94-.26,8.38-.67,11.96-.74,5.11-.1,10.22.07,15.31.39,20.12,1.28,40.04,4.78,60.11,6.56,41.89,3.71,84.01,3.37,126.01,2.47,22.81-.49,47.06.97,67.92-9.78l-20.52-5.38c5.78,10.97,6.43,27.44,10.09,40.77,3.89,14.16,12.44,27.88,25.21,35.61,14.3,8.66,43.83,8.13,42.43-15.03-.52-8.56-5.1-16.89-9.03-24.35-3-5.7-7.48-13.32-9.45-17.99-1.47-3.48-2.55-7.18-3.27-10.88-.33-1.71-.16-.7-.11-.3-.11-.85-.14-1.72-.17-2.57s-.03-1.7-.02-2.56c0-.38.22-2.6-.01-1.06.24-1.61.68-3.42,1.34-4.91-.94,2.1.21-.24.39-.32-.06.03-12.9,3.33-12.66,2.94-.09.14-.68-.68-.69-.75.08.55.97,1.51,1.26,1.99.94,1.55,1.78,3.16,2.57,4.79,0-.01.97,2.3.47,1.04-.57-1.44.51,1.53.61,1.81.5,1.46.95,2.94,1.35,4.43.89,3.26,1.57,6.58,2.13,9.92.13.78.25,1.56.37,2.34.41,2.61-.23-1.91.11.73.2,1.58.38,3.17.56,4.76.38,3.46.72,6.92,1.1,10.38,1.68,15.36,3.15,32.68,13.58,44.92,6.15,7.22,15.26,11.1,24.68,9.22,8.67-1.73,15.34-9.29,17.27-17.69,2.06-8.92-.52-17.66-3.15-26.12-2.81-9.03-5.61-18.06-8.42-27.09-1.25-4.03-2.53-8.07-3.42-12.2-.54-2.49-.56-2.33-.64-4.84-.03-.89-.02-1.78,0-2.67.02-1.3.48-2.37,0-.57.18-.68.32-1.37.52-2.05.09-.3,1.1-2.81.48-1.51s2.54-3.29.58-1.06c.59-.67,1.26-1.37,1.95-1.92-1.28,1.01-.64.45.35.09-1.62.59-4.36,1.15-5.96-.04l-5.38-5.38c-.4-.53-.36-5.21-.73-2.51-.12.89.08,1.98.11,2.87.07,1.92.15,3.83.22,5.75.17,4.47.34,8.94.52,13.41.3,7.88.51,15.78.93,23.66.69,12.82,2.52,26.07,8.81,37.47,7.31,13.25,25.6,26.37,40.61,17,8.09-5.05,10.51-14.48,9.55-23.46-.91-8.46-1.91-16.9-2.86-25.36s-1.84-16.25-2.75-24.38c-.43-3.83-.99-7.67-1.26-11.52-.09-1.23-.13-2.45-.12-3.68.01-1.33.62-4.5-.07-1.58.14-.58.25-1.18.37-1.77l.14-.58c.46-1.36.46-1.49,0-.37.23.77-.57.92.18-.21-.04.06-1.93,2.07-.76.95s-.99.75-1.03.76c-.78.37-1.49.67-2.34.8-1.43.21-2.46-.63-3.64-.63-1.55,0,.95-1.34-.16-.03.2-.24.4,1.37-.02.1-.02-.06.56,2.52.34,1.2-.26-1.52.09,1.79.1,2.09.13,3.91-.06,7.84-.27,11.74-.41,7.85-1.13,15.25-2.34,22.58-1.1,6.66-2.58,13.44-2.22,20.23.87,16.4,11.93,31.61,29.97,29.19,9.37-1.26,17.94-7.61,22.33-15.98,4.8-9.13,4.73-19.34,4.08-29.34-.59-9.07-.63-18.17-.01-27.24.15-2.19.34-4.38.56-6.56.09-.94.2-1.87.3-2.81l.23-1.87c-.15,1.09-.14,1.17.02.25.14-.61.34-1.28.42-1.9.33-2.44.41,0-.21-.05-.42-.04,1.84-2.01.13-.52-.91.79-1.78,2.01-3.05,2.31l-16.94-6.89s1.76,3.38,1.37,2.36c-.48-1.26.54,2.25.62,2.59,1.06,4.29.04-1.11.14,1.4.05,1.32.08,2.64.05,3.97-.16,6.28-.71,8.11-1.49,13.82-1.88,13.72-1.9,26.93.24,40.64,1.79,11.46,4.94,24.47,13.74,32.7,10.95,10.24,26.81,11.02,38.21,1.23,3.98-3.42,5.19-9.73,3.86-14.59-8.44-30.9-11.28-61.91-8.82-94.1l-18.99,14.46c.47.07,4.51,1.25,1.62-.02.79.35,1.64.86,2.35,1.37-2.46-1.75.79,1.05,1.05,1.36-1.55-1.88-.18,0,.1.38,2.15,2.94-.34-2.34.89,1.77.33,1.09.59,2.17.89,3.26,1.17,4.23.11-1.68.45,2.72.13,1.71.21,3.41.26,5.12.37,13.27.16,26.58.22,39.85.06,12.9-.11,27.67,12.8,34.86,7.67,4.28,17.67,2.34,23.86-3.65,5.13-4.97,8.04-12.08,10.27-18.72,7.81-23.23,2.82-49.34-6.25-71.43-5.13-12.5-10.73-25.15-21.96-33.35-10.17-7.43-23.12-9.04-35.4-9.1-30.64-.13-61.33.89-91.97,1.35-7.84.12-15.37,6.81-15,15s6.59,14.57,15,15c3.79.19,7.57.39,11.36.58-1.33-9.82-2.66-19.64-3.99-29.46-13.78,3.82-26.74,4.72-41.45,3.04v30c10.18-.32,20.36-.64,30.53-.96v-30c-32.88,3.06-65.94,3.01-98.8-.15-7.83-.75-15.34,7.44-15,15,.39,8.77,6.61,14.19,15,15h0Z"/>
      </g>
      <path class="cls-2" d="m496.96,143.97c-14.64,5.91-29.29,11.81-43.93,17.72-7.51,3.03-12.8,10-10.48,18.45,1.96,7.13,10.89,13.52,18.45,10.48,14.64-5.91,29.29-11.81,43.93-17.72,7.51-3.03,12.8-10,10.48-18.45-1.96-7.13-10.89-13.52-18.45-10.48h0Z"/>
    </g>
    <g>
      <path class="cls-1" d="m.66,219.45c1.68,21.57,11.39,63,36.13,65.47h.02c10.28.96,32.38-.21,60.37-1.69,40.75-2.16,91.46-4.84,137.73-3.03,51.47,2.02,64.43,3.51,82.37,5.56,9.41,1.07,20.08,2.3,38.38,3.81,11.03.9,22.18,1.26,33.22,1.29,18.39.04,36.47-.84,53.16-1.66,21.34-1.04,39.76-1.95,53-.64,30.13,3,78.77-.11,79.26-.15v-.02c.08-.01.16,0,.24-.02,40.51-5.71,32.79-89.21,32.44-92.75-2.55-25.94-16.02-65.72-42.66-69.01-.11-.01-.2,0-.31,0v-.02c-.97-.02-96.23-2.31-143.6.49-42.02,2.47-175.71,7.91-227.8,5.45-33.87-2.05-132.21-7.11-147.44-6.74h-.06c-10.29.43-19.57,4.98-26.85,13.19C4.09,154.95-2.16,183.54.66,219.45Zm8.75-46.46c39.56-32.42,115.49-25.83,162.68-18.53,40.21,6.22,78.8,10.62,118.5,14.12,41.47,3.67,83.04,5.6,124.49.02,42.7-5.75,78.06-9.44,121.15.5-.74,6.87-1.08,14.46-1.01,22.75-.19-.05-.38-.1-.53-.1-38.21-.98-75.12-5.9-113.31-7.81-59.9-3-132.77,19.97-186.07.67-42.75-15.48-88.39-27.4-134.22-23.92-18.03,1.37-37.03,3.35-53.09,12.43-14.36,8.13-26.79,21.84-41.56,29.18.08-10.69,1.04-20.59,2.97-29.31Zm168.24-34.99c46.64,16.21,104.96,13.93,152.93,14.71,70.39,1.15,140.23-8.32,210.68-6.92-2.22,5.97-3.84,13.23-4.84,21.66-41.42-9.54-74.98-6.99-116.16-1.44-49.9,6.72-99.15,3.77-148.97-.89-45.4-4.25-90.97-13.79-136.37-16.26-38.77-2.1-91.01-4.18-124.47,20.17,2.82-10.68,6.99-19.57,12.57-25.86,6.19-6.98,13.71-10.7,22.35-11.06,13.35-.26,90.87,3.56,132.29,5.88Zm396.85,66.62c.64-1.4-12.23,12.67-12.87,13.4-.67.75-1.5,1.73-2.43,2.84-1.7-11.52-3.01-24.5.72-35.52,1.78-5.26,8.18-18.69,16.58-2.99,2.73,5.11,4.5,10.48,5.35,16.19,1.39,9.37,2.36,19.37,1.13,28.79-.48,3.75-.9,7.97-2.67,11.39-6.42,12.37-14.7,2.46-18.01-5.61,4.13-9.88,8.26-19.8,12.2-28.49Zm-16.82,18.08c-1.75,2.11-3.7,4.52-5.59,6.86-3.9-19.95-7.75-46.71,1.17-65.66,6.54-13.9,22.85-12.06,29.45,3.64,3.59,8.55,6.04,17.2,7.11,26.47,1.54,13.27,2.86,27.19,1.08,40.5-.95,7.01-1.86,15.77-6.31,21.63-11,14.47-22.67,1.37-27.84-9.87,1.46-3.42,2.93-6.91,4.4-10.44,3.2,7.17,10.69,18.12,18.31,7.73,8.86-12.07,6.98-34.34,3.56-48.22-1.47-5.97-7.92-27.58-17.82-21.13-12.69,8.28-9.36,36.37-7.52,48.49Zm-10.69,35.32c-67.44-4.13-134.87-8.26-202.3-12.38-36.58-2.24-72.17-3.3-108.74-5.54,84.94.51,147.61.62,232.56,1.39,22.76.21,56.12.26,70.92,1.25,5.25.35,3.86.8,6.6-2.22.06-.07.13-.15.2-.22l.15-.03s-.02-.08-.03-.11c6.42-7.15,15.29-19.28,21.54-26.34.58-.64,1-1.18,1.46-1.75-.26.52-.5.95-.77,1.56-6.52,14.34-14.98,29.99-21.59,44.41Zm1.95-125.41c-2.61,2.75-4.89,6.35-6.77,10.81-65.88-1.47-131.11,7.72-196.86,7.11-48.33-.45-109.12,2.57-157.68-11.95,1.64.1,3.22.19,4.65.28,8.6.4,19.4.6,31.64.63,62.27.13,161.67-4.01,196.87-6.08,35.84-2.11,99.38-1.31,128.16-.78Zm3.07,124.47c1.3-2.89,2.61-5.89,3.94-8.99,5.31,10.66,16.86,26.44,28.12,11.62,15.03-19.77,11.66-58.82,4.29-81.47-2.74-8.41-13.5-32.54-27.68-25.59-23.04,11.28-13.81,59.62-10.01,78.65-1.89,2.35-3.62,4.52-4.89,6.1-1.73-8.75-2.9-19.18-3.43-26.53-3.94-53.43,6.93-69.95,11.78-74.57,2.5-2.38,5.29-3.48,8.29-3.41.6.01.97.03,1.19.03,22.73,2.88,34.79,40.35,37.05,63.32,2.21,22.52,1.67,81.83-27.02,85.87-10.34,1.5-17.89-14.7-21.64-25.02Zm-537.57-3.64c43.64,4.94,86.18,5.61,130.03,4.05,51.74-1.84,99.26,4.65,150.32,9.56,85.77,8.24,172.42,10.12,258.56,7.74,2.09,3.4,4.2,6.04,6.29,8.03-16.63.71-44.35,1.4-63.98-.54-13.72-1.37-32.35-.46-53.94.61-26.52,1.3-56.58,2.78-85.55.39-18.2-1.51-28.81-2.72-38.17-3.79-18.07-2.07-31.13-3.56-82.84-5.59-46.55-1.84-97.44.87-138.32,3.03-27.72,1.46-49.63,2.63-59.43,1.7-10.39-1.04-17.94-11.86-22.97-25.18Zm-7.06-30.16c10.4-1.76,27.12-7.07,36.79-7.73,18.44-1.27,30.86,2.69,48.95,5.75,18.66,3.14,34.06,8.33,53.13,7.45,24.9-1.16,46.34-8.81,70.1-15.44,25.24-7.04,46.09.61,71.05,2.51,44.58,3.39,89.45-2.47,134.25-.52,38.49,1.67,76.9,4.59,115.38,6.55.68,5.98,1.63,12.42,2.8,18.09-5.71-.03-11.42-.07-17.13-.1-37.45-.22-74.9-.45-112.35-.67-63.3-.38-126.6-.52-189.89-1.13-19.75-.19-20.15.8-1.09,1.97,108.99,6.67,217.99,13.34,326.98,20.01,1.95,5.23,3.96,9.59,6,13.16-.13-.03-.27-.05-.35-.05-86.07,2.4-173.04.93-258.75-7.74-42.74-4.32-82.83-11.56-126.02-10.35-51.69,1.45-101.91,2.63-153.39-3.15-3.3-9.26-5.43-19.56-6.46-28.59Zm-.99-17.18c14.63-5.95,25.1-19.52,38.81-27.27,24.99-14.14,50.64-18.79,79.05-17.61,75.13,3.13,106.41,35.49,171.91,33.3,48.04-1.61,92.97-11.57,141.5-8.22,32.47,2.24,65.07,6.7,97.61,7.63.09,5.53.34,11.31.79,17.41.18,2.48.44,5.34.76,8.35-41.72-2.11-83.37-5.54-125.14-6.97-46.62-1.59-95.41,6.58-141.35-1.06-18.04-3.01-32.05-6.48-50.04-2.48-32.48,7.21-59.85,20.85-94.6,16.13-24.96-3.39-50.07-9.98-75.29-10.85-16.11-.56-28.43,5.36-43.08,7.97-.12-1.17-.24-2.34-.33-3.46-.35-4.4-.53-8.69-.58-12.87Z"/>
      <path class="cls-1" d="m81.49,193.24s0,.07,0,.11c5.46,5.27,16.29,3.88,21.04,4.3,15.07,1.32,30.12,2.67,45.2,3.85,4.72.15,27.6.59,23.87-9.35-1.52-4.06-12.74-2.21-14.96-1.95-17.7,2.04-32.8-2.78-50.12-5.19-8.48-1.18-29.14,3.3-25.04,8.23Zm7.87-5.1c3.26-1.23,7.99-1.81,12.67-1.66,12.46,1.15,20.87,3.98,33.2,5.5,9.51,1.17,16.99-.2,22.58-.93,12.77-1.65,17.68,4.63,6.56,7.83-5.66,1.77-11.45,2.36-17.38,1.74-11.35-.88-22.68-1.88-34.02-2.87-6.89-.6-13.79-1.19-20.67-1.83-.91-.08-18.31-1.9-2.93-7.79Z"/>
      <path class="cls-1" d="m74.81,206.11c12.22,3.84,29.39,1.54,42.08,1.91,11.81.35,23.64.44,35.43,1.1.09,0,.11-.04.19-.04.04,0,.11.05.16.05,10.14.09,27.23-1.42,32.51-12.36,2.73-5.68.87-9.51-5.22-11.26-13.79-3.94-28.23-3.68-42.37-5.52-14.88-1.94-30.29-4.76-45.35-4.3-13.55.41-37.99,23.96-17.43,30.41Zm14.45-28.51c18.49-.56,36.52,3.3,54.84,4.92,10.31.9,21.54.66,31.53,3.52,15.05,4.3,5.31,14.16-1.99,17.3-6.97,3.26-14.17,4.59-21.63,4.02-15.16-.84-30.39-.9-45.56-1.42-8.73-.3-17.47-.52-26.18-1.11-20.6-1.41-3.19-26.86,8.98-27.23Z"/>
    </g>
  </g>
  <g id="smalllog">
    <g>
      <g>
        <path class="cls-2" d="m93.05,246.51c2.38-.05,4.77-.1,7.15-.15v-15c-2.1.08-4.19.16-6.29.23-9.61.36-9.69,15.22,0,15,20.8-.48,41.6-.96,62.4-.53,21.14.43,42.09,2.32,63.11,4.42,41.96,4.18,84.06,6.84,126.21,7.95,24.04.63,48.09.75,72.14.39,9.67-.14,9.65-14.7,0-15-12.5-.39-25-.77-37.51-1.16v15c28.05.16,56.1-.25,84.14-1.23l-7.23-5.51c1.53,9.56,3.18,19.15,4.33,28.76.73,6.12.97,11.69-5.81,13.68s-14.56.55-21.37.07c-9.21-.65-18.42-1.27-27.63-1.89-37.24-2.51-75.22-7.23-112.51-3.49-9.6.96-9.69,14.12,0,15,14.15,1.28,28.35,1.71,42.55,1.17,6.86-.26,13.89-.49,20.68-1.56,5.26-.83,10.47-3.28,12.82-8.32,1.87-4,.82-7.64-2.69-10.26-12.84-9.58-29.31-7.48-44.2-5.72-18.85,2.22-37.77.65-56.66-.26-39.19-1.88-78.38-3.76-117.58-5.64-21.69-1.04-43.44-2.07-64.95-5.22l5.51,7.23c.34-4.4,1.43-8.8,3.35-12.79.96-2,2.22-3.76,3.33-5.66,1.52-2.63.59-4.8,1.47-7.34l-14.73-1.99c.33,7.32.66,14.63.99,21.95.16,3.5.32,7,.48,10.5.09,1.91.22,3.82.26,5.73l.05,1.45c-.32,2.2.96,1.77,3.85-1.28-6.78-2.43-10.94,5.65-8.47,11.02.37.79.73,1.59,1.1,2.38,1.1,2.4,4.01,3.62,6.48,3.71,39.68,1.51,79.35,3.13,119.03,4.53,19.42.69,38.64.43,58-1.46,19.33-1.89,38.64-4,57.95-6.01,4.03-.42,7.5-3.15,7.5-7.5,0-3.73-3.45-7.92-7.5-7.5-19.32,2.01-38.62,4.12-57.95,6.01-19.35,1.89-38.57,2.15-58,1.46-39.68-1.4-79.35-3.02-119.03-4.53l6.48,3.71c-.37-.79-.73-1.59-1.1-2.38l-8.47,11.02c4.64,1.66,9.81-.32,12.6-4.28,2.98-4.22,2.54-9.26,2.32-14.17-.52-11.45-1.04-22.9-1.56-34.35-.39-8.58-11.96-10.02-14.73-1.99-1.06,3.06-.98,5.76-.24,8.86l.76-5.78c-5.55,7.97-8.45,17.05-9.19,26.69-.22,2.92,2.47,6.79,5.51,7.23,37.81,5.54,76.26,6.11,114.38,7.94,19.1.92,38.21,1.83,57.31,2.75,19.32.93,38.88,2.78,58.23,2.07,15.78-.58,35.99-7.78,49.87,2.58l-2.69-10.26c-1.07,2.3-8.81,1.79-10.88,1.93-5.8.4-11.6.64-17.41.72-11.62.17-23.24-.32-34.81-1.37v15c32.62-3.28,65.58.32,98.16,2.52,16.22,1.09,32.44,2.2,48.65,3.34,11.42.8,25.21.21,32.23-10.36,4.58-6.89,3.81-15.08,2.74-22.85-1.32-9.6-2.8-19.19-4.33-28.76-.5-3.11-4.22-5.61-7.23-5.51-28.04.98-56.09,1.39-84.14,1.23-9.67-.06-9.64,14.7,0,15,12.5.39,25,.77,37.51,1.16v-15c-42.5.63-85.01-.25-127.44-2.73-21.05-1.23-42.08-2.84-63.06-4.84-20.72-1.97-41.38-4.26-62.2-4.95-23.72-.79-47.45-.24-71.17.3v15c2.1-.08,4.19-.16,6.29-.23,9.61-.36,9.69-15.2,0-15-2.38.05-4.77.1-7.15.15-9.64.2-9.67,15.2,0,15h0Z"/>
        <path class="cls-2" d="m87.24,215.52c-9.76,5.03-14.18,15.29-15.42,25.72-1.44,12.14-.94,25.07.62,37.17.52,4.02,3.08,7.5,7.5,7.5,3.65,0,8.02-3.45,7.5-7.5-1.26-9.82-1.4-19.75-1.13-29.64.21-7.6,1.01-16.42,8.5-20.29,8.58-4.43,1-17.38-7.57-12.95h0Z"/>
        <path class="cls-2" d="m86.34,214.41c-18.35,9.59-26.01,35.75-24.63,55.08,1.27,17.76,2.9,49.39,27.56,49.24,9.65-.06,9.67-15.06,0-15-6.67.04-8.8-7.82-10-13.11-1.82-8.09-2.5-16.66-2.79-24.93-.27-7.83,2.13-15.87,4.97-23.12,2.51-6.4,6.27-11.97,12.46-15.2,8.56-4.47.98-17.42-7.57-12.95h0Z"/>
        <path class="cls-2" d="m61.53,280.73c2.68,13.91,3.61,28.22,14.66,38.48,7.07,6.56,17.7-4.02,10.61-10.61-8.71-8.09-8.69-20.92-10.8-31.87-1.82-9.47-16.28-5.46-14.46,3.99h0Z"/>
        <path class="cls-2" d="m65.67,296.81c-1.87-.63-3.03-1.77-3.48-3.44l.15.44c.19.75.45,1.48.68,2.22.42,1.37.84,2.75,1.26,4.12,1.15,3.75,5.3,6.51,9.23,5.24s6.47-5.21,5.24-9.23c-1.58-5.14-2.76-12.58-9.08-13.82-3.84-.75-8.28,1.09-9.23,5.24-.85,3.72,1.12,8.42,5.24,9.23h0Z"/>
        <path class="cls-2" d="m98.56,238.14l.79.05-6.48-3.71c2.77,3.75,3.76,10.11,4.81,14.6,1.29,5.56,2.07,11.18,2.33,16.88.37,8.1,1.52,22.1-4.99,28.22-7.04,6.63,3.58,17.22,10.61,10.61,10.42-9.81,10.18-28.36,9.22-41.55-.57-7.9-1.88-15.8-4.08-23.42-1.96-6.79-3.75-16.18-12.21-16.67-9.64-.56-9.61,14.44,0,15h0Z"/>
        <path class="cls-2" d="m297.18,308.14c-1.37.21-2.73.47-4.09.77-1.78.4-3.58,1.9-4.48,3.45s-1.34,3.98-.76,5.78c1.3,4.03,5.12,6.15,9.23,5.24,1.36-.3,2.72-.56,4.09-.77,1.74-.27,3.63-2,4.48-3.45.94-1.61,1.34-3.98.76-5.78s-1.71-3.57-3.45-4.48l-1.79-.76c-1.33-.36-2.66-.36-3.99,0h0Z"/>
        <path class="cls-2" d="m314.11,307.07c-2.78-.07-5.56-.04-8.34.11-3.91.21-7.69,3.3-7.5,7.5.17,3.88,3.3,7.73,7.5,7.5,2.78-.15,5.56-.18,8.34-.11,3.92.09,7.68-3.52,7.5-7.5-.19-4.14-3.29-7.4-7.5-7.5h0Z"/>
        <path class="cls-2" d="m97.58,229.46c22.71,4.67,45.71,7.73,68.76,10.14s46.34,4.92,69.53,6.22c46.61,2.62,93.32,1.19,139.96,2.6,11.54.35,23.08.87,34.6,1.67,9.57.66,19.91,1.04,28.92,4.73,3.5,1.44,6.06,3.68,8.73,5.89s-2.77.17.41.07c-1.96.06-4.32-.03-6.4.04-11.63.37-23.26.56-34.89.65-46.85.36-93.7-1.07-140.55-.35-26.25.4-52.37,2.01-78.62.48-12.86-.75-25.85-1.45-38.41-4.45s-24.23-7.02-36.33-10.54v14.46c.72-.15,1.44-.29,2.16-.43,2.85,0,1.46-1.15-4.18-3.43v-7.57c.8-1.35,1.9-2.27,3.3-2.76-.68.15-.78.18-.29.07.02.04-.28-.11-1-.34v14.46c10.23-2.56,22.01-.48,32.34.59,11.32,1.18,22.64,2.58,33.99,3.32,22.78,1.48,45.6,2.26,68.42,2.95,45.27,1.36,90.65,2.32,135.65,7.82,25.6,3.13,51,7.96,75.85,14.89v-14.46c-1.81.28-5.16.07-5.79-.05-.85-.16-1.77-.61-2.61-.68-.02,0,1.37.47,2.15,2.04l1.02,3.79v-.15c-.35,1.26-.69,2.52-1.03,3.79-1.32,2.1-3.06,3.19-5.22,3.27h.53c.76.29,1.21.09,1.65.15,3.14.46,6.26,1.43,9.3,2.32v-14.46c-6.44,2.19-13.59.67-20.28.93-7.9.31-15.79.52-23.7.66-15.71.26-31.43.19-47.14-.16-30.65-.69-61.26-2.44-91.83-4.78-31.4-2.41-62.76-5.43-94.1-8.55-7.23-.72-14.54-1.19-21.73-2.17-7.52-1.03-14.87-2.58-22.49-2.76-13.13-.32-28.02,1.66-36.4,12.84-2.94,3.91-4.94,8.59-5.92,13.39-1.2,5.91-2.36,14.16,1.46,19.23s8.52,6.15,14.76,6.58c7.95.55,15.91,1.01,23.87,1.38,31.68,1.49,63.4,1.66,95.11,1.51,31.01-.15,62.01-.61,93.02-.46,30.64.15,61.18.63,91.62,4.38,8.83,1.09,17.65,2.21,26.52,2.96,7.45.63,15.94,1.99,23.3.36,14.28-3.16,18.59-17.96,21.79-30.28,3.62-13.93,7.54-31.16,2.61-45.26-4.41-12.63-15.3-19.33-28.24-20.57,1.26,4.66,2.52,9.32,3.79,13.98,2.11-1.01,4.22-2.02,6.33-3.04,6.83-3.28,3.36-14.13-3.79-13.98-93.92,2.02-187.96,1.66-281.74-4.22-26.41-1.66-52.79-3.76-79.12-6.34v15c4.7.28,9.41.57,14.1.95,1.22.1,2.44.23,3.66.33,1.96.15-.49-.15-.19-.02v-14.46c1.35-.53,2.33-.09.54-.28-1.29-.14-2.6-.16-3.89-.26-4.75-.35-9.49-.8-14.23-1.25v15c11.53,1.09,23.1,1.34,34.67,1.79,11.79.46,23.31,2,35.02,3.05,3.14.28,6.66-1.02,9.73-.43,4.73.91,5.26,7.87,6.35,11.71,2.76,9.69,7.67,17.53,16.31,22.94,9.2,5.76,20.47,7.68,30.88,10.11,11.98,2.79,24.04,5.21,36.15,7.33,23.32,4.09,46.81,7.1,70.33,9.78,6.37.73,12.74,1.43,19.11,2.12,2.83.31,11.53.44,11.8,5.01.45,7.44-15.12,8.2-19.5,9.13-9.44,2.01-5.44,16.47,3.99,14.46,8.6-1.83,17.77-2.73,24.25-9.41,8.07-8.33,7.98-20.7-1.08-28.19-4.7-3.89-9.7-4.96-15.63-5.6-6.7-.73-13.39-1.46-20.08-2.21-12.97-1.47-25.94-3.01-38.87-4.82-26.87-3.76-53.6-8.58-79.88-15.37-9.62-2.49-18.84-5.96-22.37-16.09-3.76-10.78-5.5-23.43-19.01-25.56-2.77-.44-5.3-.28-8.07-.03-3.16.28-6.08-.23-9.23-.64-6.94-.91-13.9-1.5-20.89-1.89-14.66-.81-29.36-.84-43.99-2.22-9.61-.9-9.53,14.08,0,15,5.06.49,10.13.97,15.21,1.33,1.85.13,4.56.64,6.36-.07,7.16-2.82,7-11.59,0-14.46-1.75-.72-4.59-.6-6.48-.76-5.02-.43-10.05-.74-15.08-1.04-9.74-.58-9.46,14.07,0,15,93.49,9.17,187.47,12.07,281.38,11.64,26.5-.12,52.99-.51,79.49-1.08l-3.79-13.98c-2.11,1.01-4.22,2.02-6.33,3.04-7.37,3.53-2.86,13.34,3.79,13.98,11.06,1.06,15.1,9.42,15.22,19.54.07,6.39-.71,12.65-2.04,18.89-1.42,6.68-2.76,14.14-5.45,20.43-1.65,3.86-4.15,7.32-8.52,7.77-7.2.75-15.28-.53-22.45-1.22-15.14-1.45-30.18-3.83-45.34-5.1-30.75-2.57-61.96-2.02-92.8-1.92-31,.1-61.99.58-92.99.51-17.17-.04-34.35-.25-51.51-.78-8.61-.27-17.22-.62-25.82-1.06-4.64-.24-9.29-.51-13.93-.82-1.61-.11-4.49.21-5.97-.41.21.87-.04.74-.74-.38-.45-.58-.92-1.13-1.42-1.67l2.2,5.3c-.7-7.36-.02-16.56,6.55-21.3,3.81-2.75,9.53-3.31,14.05-3.68,6.16-.49,12.41-.11,18.52.79,25.64,3.78,51.57,5.85,77.39,8.25,51.03,4.74,102.19,8.57,153.46,9.26,14.09.19,28.19.14,42.28-.18,7.16-.16,14.36-.73,21.52-.67,6.71.06,13.03.91,19.55-1.32,6.87-2.34,7.37-12.33,0-14.46-4.98-1.44-10.64-3.3-15.9-2.97-5.88.37-10.48,6.16-7.29,11.84,4.1,7.31,16.33,6.65,23.2,5.59,7.63-1.19,6.63-12.61,0-14.46-90.58-25.27-185.21-20.25-278.13-25.83-12.68-.76-25.28-2.17-37.91-3.49-12.48-1.3-25.85-3.35-38.2-.25-7.45,1.87-6.8,12.28,0,14.46,5.26,1.69,12.86.97,15.3-4.76,1.7-3.99-.38-8.41-4.28-10-3.47-1.42-7.5-.41-11.02.3-7.52,1.52-6.75,12.5,0,14.46,11.5,3.34,22.87,7.19,34.5,10.09,11.99,2.99,24.14,4.03,36.43,4.92,24.9,1.8,49.54.85,74.45.26,49.84-1.18,99.68.44,149.53.14,12.63-.08,25.26-.27,37.88-.67,5.07-.16,10.32.27,14.76-2.61,3.85-2.49,6.08-6.94,6.23-11.47.35-10.12-8.12-16.31-16.47-20.03-9.47-4.22-19.99-5.39-30.23-6.19-49.53-3.85-99.23-2.24-148.85-3.47-27.66-.68-55.12-3.09-82.66-5.65-27.93-2.59-55.81-5.77-83.31-11.42-9.42-1.94-13.45,12.52-3.99,14.46h0Z"/>
        <path class="cls-2" d="m140.91,321.99c12.61-.88,25.09-.22,37.41,2.68,9.39,2.21,13.39-12.25,3.99-14.46-13.59-3.2-27.49-4.18-41.4-3.21-9.58.67-9.65,15.67,0,15h0Z"/>
        <path class="cls-2" d="m106.01,303.91c-7.91-.44-15.81-.97-23.71-1.57s-10.08,10.52-3.79,13.98c4.21,2.31,8.64,2.99,13.32,1.95,3.19-.7,5.51-4.06,5.51-7.23,0-3.57-2.41-5.95-5.51-7.23s-6.35-1.28-9.54-1.46c-8.09-.48-9.29,10.02-3.79,13.98,1.11.8,2.22,1.53,3.4,2.24,8.29,5,15.83-7.97,7.57-12.95-1.17-.71-2.28-1.44-3.4-2.24-1.26,4.66-2.52,9.32-3.79,13.98,2.02.12,3.66.15,5.55.93v-14.46c-.66.15-1.21-.13-1.76-.44-1.26,4.66-2.52,9.32-3.79,13.98,7.9.59,15.8,1.13,23.71,1.57,9.65.53,9.62-14.47,0-15h0Z"/>
        <path class="cls-2" d="m288.23,307c-25.11-.79-50.15,1.77-75.25,1.76-12.59,0-25.09-.76-37.54-2.66s-24.77-1.83-37.14-1.25c-9.61.46-9.67,15.46,0,15,12.04-.57,24.13-.59,36.07,1.18,12.8,1.9,25.67,2.72,38.6,2.73,25.1.01,50.14-2.56,75.25-1.76,9.66.31,9.64-14.69,0-15h0Z"/>
        <path class="cls-2" d="m239.5,319.6l-.06-.62-2.2,5.3c-2.33,1.37-2.24,1.84.26,1.42,1.28,0,2.57,0,3.85-.01,1.92,0,3.85,0,5.77-.01,4.49,0,8.98,0,13.47.01,9.65.03,9.67-14.97,0-15-7.38-.02-14.75-.02-22.13,0-5.85.02-14.71.64-13.97,8.9.85,9.54,15.86,9.63,15,0h0Z"/>
        <path class="cls-2" d="m374.57,322.32c20.96,1.4,41.58,5.27,62.61,6.12,5.12.21,10.24.34,15.37.44,4.74.1,9.86.72,14.55-.14,10.2-1.87,11.19-13.27,13.56-21.59,2.65-9.3-11.82-13.27-14.46-3.99-.65,2.27-1.3,4.54-1.94,6.82-.11.38-1.66,4.86-1.46,5.11-.12,1.03.49.69,1.82-1.05-1.14.02-2.28.02-3.42-.02-1.92-.02-3.84-.06-5.76-.1-8.97-.16-17.93-.39-26.88-.92-18.09-1.07-35.91-4.49-53.98-5.7-9.64-.64-9.6,14.36,0,15h0Z"/>
        <path class="cls-2" d="m474.18,287.82c.38,5.3.26,8.69-2.89,13.12-2.93,4.13-5.99,8.18-8.98,12.26-2.41,3.29-.53,8.33,2.69,10.26,3.78,2.26,7.88.56,10.26-2.69,3.62-4.95,7.85-9.81,10.89-15.14s3.49-11.57,3.03-17.82c-.69-9.57-15.7-9.65-15,0h0Z"/>
        <path class="cls-2" d="m478.74,320.6c-.44-5.19,4.61-8.38,5.41-13.57l-14.73-1.99c-.13,1.68-.81,3.53-1.93,4.88-2.59,3.11-3.05,7.56,0,10.61,2.67,2.67,8,3.13,10.61,0,3.84-4.61,5.87-9.49,6.33-15.48.63-8.32-13.43-10.38-14.73-1.99-.16,1.05-.33,1.46-1.13,2.67-.86,1.28-1.82,2.49-2.52,3.87-1.73,3.41-2.62,7.19-2.29,11.02.34,4.04,3.2,7.5,7.5,7.5,3.79,0,7.84-3.44,7.5-7.5h0Z"/>
        <path class="cls-2" d="m65.83,306.08c1.52,2.17,2.85,4.45,3.99,6.84,1.7,3.55,7.05,4.76,10.26,2.69,3.64-2.35,4.51-6.47,2.69-10.26-1.14-2.39-2.47-4.67-3.99-6.84-1.14-1.63-2.51-2.9-4.48-3.45-1.8-.49-4.19-.27-5.78.76-3.19,2.05-5.1,6.82-2.69,10.26h0Z"/>
        <path class="cls-2" d="m93.77,320.99c6.3.21,12.61.41,18.91.62,5.92.19,12.09-.06,17.94.98,9.44,1.68,13.49-12.77,3.99-14.46-13.3-2.37-27.37-1.69-40.84-2.13-9.66-.31-9.64,14.69,0,15h0Z"/>
        <path class="cls-2" d="m324.41,321.13c10.64,0,21.27,0,31.91,0,9.65,0,9.67-15,0-15-10.64,0-21.27,0-31.91,0-9.65,0-9.67,15,0,15h0Z"/>
      </g>
      <path class="cls-2" d="m79.61,292.35c6.82,10.67,9.92,13.13,9.3,7.37l-.05-1.6c-.17-2.37-.36-4.82-1.06-7.1.32,1.02-2.96-6.73-3.05-6.64.51,3.34.71,3.71.6,1.11l-.07.59c.41-4.24,1.77-8.32,1.82-12.65.04-3.27-1.03-8.1-.83-10.49-.29.81-.17.33.38-1.44-.45,1.2-.44,1.32.04.37.69-1.25,1.4-2.48,2.02-3.77,1.73-3.62,3.82-8.95,2.96-13.09-.01-1.96-.47-1.03-1.36,2.78-.88,1.11-.95,1.28-.19.51,1.1-.74,2.03-1.92,2.89-2.91,1.89-2.18,3.09-4.1,4.23-6.65.45-1.05.89-2.1,1.33-3.15-.22.58-.42,1.18-.58,1.78l-6.62,3.86-1.25.16c7.84.67,15.34-7.38,15-15-.39-8.7-6.6-14.28-15-15-7.81-.67-14.97,4.56-18.42,11.27-.1.19-2.11,4.94-2.06,4.96-.66-.29,3.46-4.5.28-1.46-2.04,1.96-4.12,3.98-5.5,6.49-1.83,3.33-2.76,7.12-2.78,10.91,0,.48,0,.97.05,1.45-.02.92.04.97.19.15-.21-.07,1.43-2.84,0-.31-3.21,5.67-5.38,11.22-5.49,17.83-.04,2.4.34,4.77.54,7.15.12,1.49.25,2.99.17,4.49-.15,2.79.31-1.51-.19,1.2-1.31,7.12-2.39,13.76.46,20.66.06.15,2.37,4.82,2.35,4.83-.15.14-.64-5.24-.77-1.3-.11,3.47.62,7.08,1.97,10.25,3.03,7.15,10.53,13.37,18.73,12.37,7.76-.95,15.39-6.22,15-15-.33-7.31-6.66-16.02-15-15h0Z"/>
      <path class="cls-2" d="m93.33,238.99h1.33c2.07.08,3.99-.35,5.78-1.29,1.86-.6,3.47-1.64,4.83-3.1,1.46-1.36,2.5-2.97,3.1-4.83.94-1.79,1.37-3.71,1.29-5.78l-.54-3.99c-.71-2.54-2-4.75-3.86-6.62l-3.04-2.35c-2.34-1.36-4.86-2.04-7.57-2.05h-1.33c-2.07-.08-3.99.35-5.78,1.29-1.86.6-3.47,1.64-4.83,3.1-1.46,1.36-2.5,2.97-3.1,4.83-.94,1.79-1.37,3.71-1.29,5.78l.54,3.99c.71,2.54,2,4.75,3.86,6.62l3.04,2.35c2.34,1.36,4.86,2.04,7.57,2.05h0Z"/>
      <path class="cls-2" d="m131.16,242.25c9.9,1.73,19.71,2.52,29.73,1.68,7.51-.63,13.69-5.23,14.73-13.01.88-6.58-3.35-15.43-10.74-16.46-8.78-1.22-17.44-2.02-26.31-1.78v30c25.76-1.41,51.46.9,77.11,3.09,25.75,2.19,51.51,4.26,77.2,7.01,7.83.84,15.34-7.5,15-15-.4-8.84-6.61-14.1-15-15-25.7-2.75-51.46-4.82-77.2-7.01s-51.35-4.5-77.11-3.09c-7.82.43-15.38,6.59-15,15,.36,7.95,6.6,15.22,15,15,5.93-.16,13.39.02,18.33.71,1.33-9.82,2.66-19.64,3.99-29.46-7.21.61-15.66.46-21.76-.6-7.7-1.34-16.53,2.06-18.45,10.48-1.66,7.29,2.21,17.01,10.48,18.45h0Z"/>
      <path class="cls-2" d="m249.75,240.77c-23.59-2.25-47.11,2.62-70.2,6.86-11.28,2.07-19.85,3.65-30.69,4.4-5.72.4-11.48.5-17.21.16-1.97-.12-5.64-.45-6.56-.59.79.12-2.65-.48-3.13-.58l-1.7-.35c-3.82-1.14-2.63.22,3.57,4.07l2.05,7.57-.07-1.03-2.05,7.57c-.39.64-.88,1.17-1.47,1.6.84-.59,1.69-1.14,2.57-1.66,1.31-.78,2.66-1.5,4.04-2.13-1.25.5-1.04.43.65-.22.96-.34,1.94-.66,2.92-.95,1.48-.44,2.98-.81,4.49-1.13,1.01-.21,2.03-.4,3.06-.57-1.41.16-1.19.13.66-.07,1.57-.14,3.13-.26,4.71-.33,3.67-.16,7.35-.11,11.01.11,17.59,1.02,34.88,5.21,52.57,3.5-1.33-9.82-2.66-19.64-3.99-29.46-39.37,5.48-81.9,9.97-114.01,35.6-8.46,6.75-3.98,23.31,6.62,25.07,24.01,3.99,47.87,2.1,72.05,2.15,23.57.05,46.84,3.82,70.28,5.72,47.62,3.85,94.47-5.85,141.85-8.6,6.51-.38,13.03-.63,19.55-.74,7.01-.13,14.06.3,21-.76s12.75-5.4,17.71-9.11c4.01-2.99,9.99-6.81,15.09-9.58,5.8-3.15,8.61-10.69,6.89-16.94-1.85-6.73-7.83-10.44-14.46-11.01-27.95-2.42-55.96-3.9-84-4.42-7.85-.15-15.36,7-15,15s6.59,14.84,15,15c28.05.52,56.06,2,84,4.42-2.52-9.32-5.05-18.63-7.57-27.95-4.52,2.45-8.9,5.13-13.08,8.12-1.23.88-2.43,1.79-3.64,2.7.25-.19-4.77,3.59-2.44,1.89-.83.61-1.7,1.17-2.52,1.78l-1.32.78c1.34-.47,1.04-.43-.91.13.76,0,1.64-.07-1.26-.12-1.24-.02-2.48-.01-3.72-.01-2.61,0-5.22.01-7.83.05-5.87.08-11.74.27-17.6.56-22.9,1.15-45.65,4.12-68.44,6.51s-45.62,4.17-68.5,2.91-45.54-5.16-68.45-6.11c-24.72-1.02-50.81,2.68-74.73-1.3l6.62,25.07c11.58-9.24,27.21-14.3,43.1-18.05,18.99-4.49,38.36-7.15,57.67-9.83,7.36-1.02,11.62-9.92,10.74-16.46s-7.29-13.73-14.73-13.01c-18.75,1.81-37.05-3.05-55.71-3.64-17.96-.57-36.98,3.02-51.01,14.93-11.63,9.87-5.87,26.7,7.75,30.77,8.73,2.61,18.56,3.27,27.65,3.35,18.52.16,36.95-3.43,55.09-6.79,19.38-3.59,36.74-6.76,57.01-4.82,7.83.75,15.34-7.43,15-15-.39-8.77-6.61-14.2-15-15h0Z"/>
      <path class="cls-2" d="m435.15,250.62c-4.25-.57.63.46,1.49.68,1.57.58,1.41.5-.46-.24.68.33,1.34.68,1.98,1.06.65.38,1.28.79,1.89,1.22-1.53-1.23-1.67-1.31-.41-.24,1.03,1.1,2.09,2.12,3.05,3.3,4.96,6.12,16.12,5.55,21.21,0,5.97-6.5,5.3-14.68,0-21.21-7.25-8.94-17.67-13.09-28.76-14.56-7.81-1.04-15.33,7.64-15,15,.4,9.01,6.63,13.89,15,15h0Z"/>
      <path class="cls-2" d="m457.49,247.39c2.2,2.15,4.38,4.08,5.15,5.76-.85-1.85.68,2.48.7,2.59-.36-1.98.09,1.44.14,1.94.63,7.15,1.54,14.36,1.3,21.54-.2,5.8-1.24,11.03-3.36,17.27-.08.23-1.25,3.58-1.14,3.14-1.12,1.79-.97,1.96.45.52,1.59-1.18,1.55-1.27-.09-.28l.91-.4c-1.65.66-3.28,1.36-4.89,2.11-1.94,1.1-3.63,2.53-5.32,3.98-6.16,5.27-5.42,15.8,0,21.21,6.1,6.1,15.04,5.28,21.21,0-.42.58-.99.94-1.69,1.09,1.64-.68,3.28-1.38,4.91-2.08,2.18-1.2,4.22-2.7,5.96-4.48,4.02-4.11,6.08-9.83,8.01-15.13,3.12-8.56,4.71-17.86,5.03-26.96.31-8.57-.73-17.33-1.72-25.83-1.32-11.33-6.29-19.32-14.36-27.22-5.79-5.67-15.44-5.77-21.21,0s-5.81,15.53,0,21.21h0Z"/>
      <path class="cls-2" d="m467.01,281.76c-.15-1.91-.12-2.23.08-.96-9.82-1.33-19.64-2.66-29.46-3.99.16,1.46-.05,3.33.33,4.74-.44,3.58,1.16,2.65,4.81-2.78,5.7-3.15,6.89-4.61,3.58-4.39-3.59-.89-8.04-.37-11.74-.53-7.83-.36-15.66-.71-23.48-1.07s-15.35,7.15-15,15c.38,8.43,6.59,14.62,15,15,11.71.53,23.5,1.5,35.22,1.6,6.71.06,13.28-1.99,17.42-7.53s4.64-13.17,3.87-20.04c-.85-7.5-5.06-13.66-13.01-14.73-7.35-.99-14.38,3.51-16.46,10.74-.83,2.89-1.25,5.94-1.16,8.94.24,7.83,6.73,15.37,15,15s15.26-6.6,15-15h0Z"/>
      <path class="cls-2" d="m319.96,321.19c5.18.13,11.6,1.72,17.97,2.58,7.07.95,14.14,1.63,21.27,1.96,13.58.63,27.18.21,40.75-.2,7.84-.24,15.37-6.73,15-15s-6.6-15.25-15-15c-13.58.41-27.18.81-40.75.2-5.65-.26-12.09-.72-17.2-1.43-7.36-1.01-14.58-2.92-22.04-3.11-7.85-.2-15.36,7.04-15,15s6.59,14.79,15,15h0Z"/>
      <path class="cls-2" d="m319.11,323.88c7.85,0,15.36-6.9,15-15s-6.59-15-15-15c-7.85,0-15.36,6.9-15,15s6.59,15,15,15h0Z"/>
      <path class="cls-2" d="m288.47,294.89c-8.1,2.01-15.77,2.35-24.44,1.44-7.83-.82-15.34,7.49-15,15,.4,8.83,6.61,14.12,15,15,10.87,1.14,21.82.12,32.42-2.52,7.86-1.95,12.58-10.78,10.48-18.45s-10.56-12.44-18.45-10.48h0Z"/>
      <path class="cls-2" d="m231.53,297.59c-11.81.5-23.71,1.03-35.49-.23-10.72-1.14-22.66-6.31-34.27-5.24-7.79.72-15.39,6.38-15,15,.34,7.51,6.63,15.77,15,15,5.3-.49,8.86.48,14.37,1.84,6.56,1.62,13.18,2.7,19.9,3.4,11.79,1.22,23.67.73,35.49.23,7.83-.33,15.37-6.66,15-15-.35-7.84-6.6-15.35-15-15h0Z"/>
      <path class="cls-2" d="m137.77,324.16c14.7-1.03,29.65-.47,43.63,2.05,7.69,1.39,16.54-2.09,18.45-10.48,1.67-7.33-2.22-16.96-10.48-18.45-17.07-3.08-34.29-4.33-51.6-3.12-7.81.55-15.38,6.51-15,15,.34,7.66,6.62,15.59,15,15h0Z"/>
      <path class="cls-2" d="m85.78,323.8l62.67.12c7.85.01,15.36-6.91,15-15s-6.59-14.98-15-15l-62.67-.12c-7.85-.01-15.36,6.91-15,15s6.59,14.98,15,15h0Z"/>
    </g>
    <g>
      <path class="cls-1" d="m484.94,228.11c-5.12-6.11-11.78-9.62-19.25-10.14h-.05c-11.07-.58-82.66,1.05-107.32,1.84-37.92.7-134.98-6.03-165.48-8.7-34.37-3.02-103.67-3.34-104.38-3.34h0c-.08.02-.15,0-.23,0-19.43,1.84-30.05,30.47-32.44,49.28-.32,2.57-7.67,63.1,21.66,68.1.05.01.12,0,.17.02h0c.35.05,35.65,3.32,57.61,1.77,9.65-.68,23.02.36,38.51,1.57,12.12.94,25.24,1.96,38.61,2.31,8.03.21,16.14.18,24.18-.24,13.33-.72,21.11-1.39,27.98-1.97,13.08-1.12,22.53-1.93,59.99-2.33,33.67-.36,70.48,2.65,100.06,5.06,20.31,1.65,36.36,2.97,43.85,2.48h.01c18.04-1.28,25.96-31.19,27.63-46.84,2.8-26.05-1.15-46.95-11.12-58.87Zm7.28,46.27c-10.58-5.65-19.33-15.87-29.6-22.08-11.49-6.94-25.26-8.77-38.34-10.14-33.24-3.49-66.67,4.23-98.07,14.6-39.15,12.92-91.64-5.29-135.25-4.36-27.8.6-54.73,3.41-82.53,3.32-.11,0-.25.03-.39.06.22-6.02.13-11.55-.26-16.56,31.53-6.33,57.16-2.91,88.08,2.15,30.02,4.92,60.28,4.38,90.5,2.58,28.93-1.72,57.07-4.11,86.44-7.8,34.46-4.33,89.79-7.54,117.87,16.85,1.22,6.38,1.71,13.59,1.55,21.37Zm-26.83-51.82c6.28.44,11.67,3.3,16.02,8.5,3.92,4.69,6.77,11.24,8.6,19.06-23.82-18.39-61.84-17.97-90.07-17.25-33.06.85-66.38,6.83-99.47,8.98-36.31,2.35-72.18,3.47-108.31-2.45-29.82-4.89-54.16-7.44-84.47-1.37-.55-6.15-1.58-11.46-3.07-15.85,51.24.45,101.81,8.78,153.01,9.41,34.89.43,77.23,3.3,111.47-7.51,30.16-.82,86.59-1.99,96.29-1.53Zm-377.88,62.67c-2.58,5.8-8.8,12.83-13.21,3.7-1.22-2.52-1.43-5.6-1.7-8.34-.7-6.88.21-14.12,1.42-20.91.74-4.13,2.14-8,4.23-11.66,6.43-11.24,10.8-1.34,11.99,2.52,2.49,8.09,1.26,17.5-.21,25.84-.65-.83-1.24-1.55-1.71-2.11-.46-.54-9.51-11.04-9.08-10.01,2.69,6.39,5.48,13.7,8.28,20.96Zm-.89-42.88c-7.06-4.9-12.2,10.68-13.39,14.99-2.78,10.02-4.6,26.17,1.59,35.13,5.32,7.71,10.99-.1,13.47-5.24,1,2.59,2,5.16,2.98,7.68-3.99,8.07-12.74,17.35-20.44,6.6-3.12-4.36-3.6-10.74-4.14-15.86-1.02-9.71.23-19.8,1.63-29.42.97-6.72,2.93-12.95,5.72-19.09,5.13-11.27,17.02-12.27,21.48-2.03,6.09,13.96,2.74,33.34-.51,47.75-1.32-1.74-2.69-3.53-3.92-5.1,1.59-8.77,4.59-29.13-4.46-35.41Zm-3.27,28.57c-.19-.45-.35-.76-.53-1.15.33.42.62.82,1.02,1.3,4.4,5.26,10.6,14.26,15.11,19.6,0,.03-.01.05-.02.08l.11.03c.04.05.09.11.14.16,1.93,2.25.93,1.89,4.75,1.75,10.78-.41,35.03.24,51.58.57,61.77,1.21,107.33,2.43,169.09,3.83-26.64.87-52.53.9-79.17,1.77-49.1,1.6-98.21,3.2-147.32,4.8-4.5-10.62-10.33-22.17-14.77-32.73Zm109.1-55.24c25.54,2.24,97.71,7.32,142.98,8.52,8.9.24,16.76.32,23.01.2,1.04-.03,2.19-.07,3.38-.1-35.6,9.55-79.73,6.09-114.87,5.41-47.81-.92-95.04-8.96-142.96-9.26-1.28-3.28-2.86-5.94-4.7-8,20.93.21,67.14.95,93.15,3.23Zm-114.22,104.92c-20.77-3.53-19.93-46.66-17.85-62.99,2.12-16.65,11.67-43.64,28.25-45.26.16,0,.43,0,.87,0,2.19.01,4.19.87,5.96,2.65,3.43,3.46,10.99,15.7,7.02,54.46-.54,5.33-1.61,12.9-3.05,19.22-.89-1.17-2.11-2.79-3.43-4.54,3.16-13.76,10.87-48.7-5.64-57.38-10.16-5.34-18.49,11.97-20.65,18.03-5.83,16.31-9.09,44.62,1.43,59.31,7.88,11,16.6-.22,20.68-7.86.9,2.28,1.79,4.49,2.68,6.62-2.94,7.42-8.77,19.04-16.25,17.74Zm389.88,8.62c-7.15.47-23.05-.84-43.17-2.47-29.68-2.42-66.61-5.44-100.49-5.08-37.63.4-47.15,1.21-60.33,2.34-6.83.58-14.57,1.25-27.83,1.96-21.11,1.13-42.92-.57-62.18-2.06-15.67-1.22-29.2-2.27-39.2-1.56-14.31,1.01-34.44-.07-46.52-.94,1.56-1.4,3.15-3.28,4.74-5.71,62.56,3.52,125.59,3.95,188.12-.25,37.23-2.5,71.9-6.23,109.47-3.82,31.84,2.04,62.78,2.45,94.6-.24-3.93,9.58-9.65,17.28-17.22,17.82Zm17.69-18.95c-37.54,3.13-74.02,1.23-111.57-.9-31.37-1.78-60.66,2.65-91.82,4.9-62.49,4.52-125.74,3.78-188.26.24-.06,0-.16.01-.26.03,1.56-2.55,3.11-5.67,4.63-9.44,79.37-2.59,158.74-5.16,238.11-7.75,13.88-.45,13.6-1.18-.75-1.45-46.03-.87-92.04-2.08-138.06-3.13-27.23-.62-54.46-1.23-81.69-1.85-4.15-.1-8.3-.19-12.45-.28.97-4.1,1.79-8.76,2.41-13.09,28.01-.63,55.99-1.95,84.01-2.36,32.6-.48,65.1,4.71,97.58,3.17,18.18-.86,33.5-6,51.7-.35,17.13,5.31,32.56,11.32,50.64,12.68,13.85,1.04,25.15-2.41,38.78-4.31,13.22-1.85,22.33-4.47,35.7-3.16,7.01.68,19.06,4.89,26.59,6.39-.93,6.54-2.7,13.99-5.29,20.65Zm5.68-23.78c-.09.81-.2,1.66-.32,2.51-10.6-2.2-19.43-6.76-31.15-6.69-18.35.11-36.75,4.38-54.96,6.32-25.36,2.71-44.98-7.78-68.43-13.69-12.99-3.28-23.25-1.05-36.42.76-33.56,4.6-68.85-2.35-102.78-2.17-30.39.17-60.74,1.8-91.11,2.46.29-2.18.55-4.26.73-6.06.45-4.42.75-8.62.93-12.64,23.67,0,47.46-2.56,71.11-3.52,35.35-1.42,67.8,6.75,102.69,8.92,47.57,2.95,70.98-19.92,125.66-20.63,20.67-.27,39.23,3.64,57.1,14.44,9.8,5.92,17.13,16,27.64,20.63-.12,3.04-.34,6.15-.69,9.35Z"/>
      <path class="cls-1" d="m419.83,259.75c-12.64,1.39-23.72,4.58-36.54,2.73-1.61-.23-9.73-1.81-10.91,1.11-2.92,7.15,13.72,7.3,17.16,7.29,10.98-.54,21.96-1.21,32.93-1.86,3.46-.2,11.31,1.03,15.39-2.69,0-.03,0-.05,0-.08,3.09-3.5-11.84-7.18-18.03-6.51Zm10.12,8.23c-5.02.32-10.04.6-15.07.9-8.26.48-16.52.97-24.79,1.38-4.32.33-8.52-.22-12.6-1.62-8.02-2.56-4.31-7.02,4.93-5.56,4.05.64,9.45,1.8,16.39,1.14,9-.85,15.17-2.73,24.25-3.31,3.4-.01,6.83.51,9.17,1.47,11.05,4.6-1.63,5.56-2.29,5.6Z"/>
      <path class="cls-1" d="m430.4,253.28c-10.94-.65-22.2,1.08-33.05,2.18-10.32,1.04-20.81.56-30.91,3.13-4.46,1.14-5.9,3.89-4.03,8.07,3.6,8.06,16,9.51,23.37,9.66.04,0,.08-.03.12-.03.06,0,.07.04.14.04,8.58-.23,17.19-.05,25.78-.06,9.23,0,21.67,2.02,30.63-.52,15.08-4.26-2.2-21.89-12.04-22.47Zm8.09,21.43c-6.34.25-12.7.23-19.06.27-11.04.06-22.11-.21-33.15.08-5.43.26-10.64-.85-15.64-3.37-5.24-2.44-12.12-9.81-1.08-12.62,7.32-1.87,15.49-1.46,23-1.9,13.35-.79,26.54-3.23,39.97-2.43,8.84.52,20.97,19.39,5.96,19.98Z"/>
    </g>
  </g>
  <g id="Layer_5" data-name="Layer 5">
    <g>
      <g>
        <path class="cls-2" d="m543.44,262.13c4.71,3.94,25,18.25,14.64,25.39-3.73,2.57-9.93.15-13.72-1.24-5.56-2.05-10.73-5.07-15.96-7.82-16.25-8.54-32.78-16.53-49-25.15-17.71-9.42-35.39-18.9-53.46-27.59-70.26-33.78-142.89-62.6-209.28-103.95-9.54-5.94-18.93-12.11-28.15-18.52-8.2-5.7-15.65-12.27-23.68-18.2-6.62-4.9-13.94-7.46-21.2-11.11-5.42-2.73-8.59-4.88-5.67-10.96l-10.26,2.69c2.42,1.22,4.84,2.44,7.14,3.88.52.33,1.35,1.1,1.91,1.26l-.53-.38c1.01,1.05.62.3-1.17-2.25v-3.99c.24-1.4,6.8-5.39,7.41-4.93-.21-.15-.7-.14-.95-.24-2.06-.8-.06.08-1.53-.62-.39-.18-.75-.42-1.11-.65-.69-.44.95.34-.23-.16-.77-.32-.15-.53.04.22-.38-1.53.32,1.44.32,1.37l-11.29,6.48c34.2,20.76,69.76,39.07,105.49,57.02,17.76,8.92,35.55,17.79,53.22,26.9,9.16,4.72,18.45,9.33,27.42,14.42,3.96,2.25,6.81,5.67,10.29,8.58s7.22,5.56,11.31,7.63c7.94,4.03,14.27-5.21,9.09-11.78-2.35-2.98-4.72-5.89-7.42-8.56-5.91-5.84-16.55,1.79-11.78,9.09,2.45,3.74,5.33,7.03,8.59,10.07,7.24,6.75,16.47-3.19,10.61-10.61-12.36-15.61-22.16-33.39-38.21-45.7-6.71-5.15-14.53-7.78-22.5-10.34-6.86-2.2-14.61-4.48-18.84-10.79l-6.48,11.29c1.95.23,3.5,1.4,5,2.55l3.79-13.98c-11.79-1.58-21.67-11.09-32.58-15.31-3.22-1.24-18.32-3.91-17.45-8.73l-11.02,4.48c.4.51.79,1.02,1.19,1.54l3.31-12.54c-21.74,6.09-45.71-1.69-66.86,7.4-6.72,2.89-11.95,9.81-18.94,11.83-2,.58-2.16-.65-3.35-3.21-1.58-3.41-2.61-7.08-4.1-10.53-2.52-5.8-12.61-4.29-13.71,1.79-.49,2.72-.86,5.36-.68,8.12.54,8.39,12.08,10.24,14.73,1.99,1.11-3.44.89-6.58.41-10.11-1-7.32-13.16-7-14.46,0-3.03,16.3.02,38.01-12.56,50.79-4.3,4.37-1.78,10.48,3.31,12.54,23.87,9.65,47.74,19.3,71.61,28.95,5.04,2.04,8.97-2.99,9.49-7.23,1.65-13.21,3.96-28.57-5.77-39.42-9.34-10.41-23.57-9.23-36.09-11.72-9.66-1.92-12.79,10.85-3.99,14.46,111.99,46.01,225.02,89.87,333.86,143.11,30.98,15.15,61.7,30.82,92.44,46.46l1.79-13.71c-49.14,11.95-90.39-28.31-131.35-48.22-26.18-12.73-53.88-21.81-80.94-32.41-27.37-10.72-54.08-23.63-79.67-38.09-25.28-14.28-50.13-31.35-80.25-31.82-5.16-.08-8.17,4.84-7.23,9.49,4.23,21.11,23.47,30.87,41.94,37.62,24.43,8.93,48.71,18.23,73.3,26.73,54.78,18.92,110.29,35.73,164.62,55.96,13.32,4.96,26.56,10.13,39.69,15.57,6.42,2.66,12.81,5.41,19.17,8.23,2.89,1.28,7.69,2.44,9.98,4.64-.07-.07.8.77.68.54.28-1.13.02-.97-.78.49-.87.87-1.77,1.7-2.71,2.48-5.13,3.98-8.59,3.38-14.65,2.12-6.6-1.37-13.14-3-19.61-4.87-11.8-3.41-23.41-7.58-34.69-12.45-46.09-19.9-87.22-49.16-130.45-74.32-25.42-14.8-51.85-29.01-79.3-39.67-13.61-5.28-27.69-9.41-42.14-11.66-3.56-.55-7.13-1.03-10.71-1.39-2.86-.29-6.49.12-9.08-1.16-1.92-.95-3.47-2.9-5.05-4.28-2.61-2.26-5.31-4.29-8.45-5.74-8.62-3.98-16.25,8.44-7.57,12.95,32.67,16.96,65.34,33.92,98.01,50.87l3.79-13.98c-4.28.12-7.56-1.2-10.53-4.29l-9.09,11.78c26.25,16.02,51.99,32.85,77.19,50.48l7.57-12.95c-3.43-2.22-5.64-5.07-7.42-8.72l-6.48,11.29c5.8.77,12.42-.35,18.07-1.53,6.8-1.42,15.5-4.98,15.29-13.29-.24-10.09-11.32-13.83-19.26-9.8-3.73,1.9-6.95,4.89-10.05,7.65-1.56,1.39-3.08,2.9-4.76,4.16.42-.31-.92.63-.99.68-1.44.95-.06.26-.99.48-6.67,1.58-6.85,10.29-1.79,13.71,18.97,12.82,35.53,28.92,55.1,40.89,20.06,12.27,41.85,21.64,64.24,28.74l-1.79-13.71c-1.93.89-3.85,1.79-5.78,2.68-7.32,3.4-2.92,13.49,3.79,13.98,35.76,2.58,72.08,7.64,107.84,2.32,27.93-4.16,41.11-30.72,50.11-54.45,3.43-9.04-11.07-12.94-14.46-3.99-3.91,10.3-8.27,20.92-15.2,29.6-7.85,9.83-17.58,13.76-29.86,14.97-32.8,3.22-65.73-1.11-98.43-3.46l3.79,13.98c1.93-.89,3.85-1.79,5.78-2.68,6.21-2.88,3.86-11.91-1.79-13.71-21.77-6.9-42.8-16.07-62.2-28.18-18.93-11.82-35.09-27.46-53.56-39.94l-1.79,13.71c5.44-1.29,9.73-5.96,13.77-9.54,1.71-1.51,4.83-3.04,6.22-4.75.39-.48.18.42-.82-.21-.67-.42-1.27-.63-1.79-1.18,1.09,1.15-.28-1.73.05-2.92.1-.38.63-2.15.71-1.73.03.17.45-.2.05-.11-1.32.28-.16.23-1.63.68-2.41.74-4.89,1.26-7.39,1.59-2.7.36-7.14.81-10.47.37-6.16-.82-8.64,6.83-6.48,11.29,2.87,5.93,7.29,10.54,12.8,14.11,8.19,5.3,15.38-7.49,7.57-12.95-25.19-17.63-50.93-34.47-77.19-50.48-7.38-4.5-14.93,5.69-9.09,11.78s13.05,8.92,21.13,8.69c7.09-.2,10.66-10.41,3.79-13.98-32.67-16.96-65.34-33.92-98.01-50.87l-7.57,12.95c4.92,2.27,8.07,6.45,12.52,9.39,5.39,3.56,11.43,3.2,17.63,3.83,13.65,1.4,27.09,4.81,40.04,9.27,25.69,8.86,49.89,22.13,73.65,35.17,45.9,25.19,88.2,56.64,136.09,78.23,11.6,5.23,23.44,9.95,35.56,13.85,6.1,1.96,12.27,3.71,18.49,5.24,6.54,1.6,14.07,4.09,20.83,3.86,11.21-.37,27.56-11.55,25.06-24.14-1.35-6.79-6.65-10.36-12.56-13.03-6.93-3.13-13.91-6.16-20.92-9.13-55.38-23.4-112.7-41.58-169.72-60.46-32.17-10.65-64.27-21.55-95.9-33.74-17.98-6.93-46.04-11.9-50.5-34.16l-7.23,9.49c26.59.41,49.03,16.28,71.27,28.97,25.49,14.54,52.16,27.32,79.37,38.3,26.94,10.87,54.74,19.62,80.98,32.19,22.69,10.87,43.15,25.65,65.48,37.17,24.73,12.76,51.43,20.1,79.09,13.37,6.07-1.48,7.55-10.78,1.79-13.71-54.86-27.93-109.8-55.65-165.96-80.89-55.82-25.09-112.4-48.45-169.07-71.54-31.62-12.88-63.27-25.68-94.85-38.66l-3.99,14.46c8.54,1.7,21.89.25,28.55,6.87,7.06,7.02,3.37,21.18,2.3,29.8l9.49-7.23c-23.87-9.65-47.74-19.3-71.61-28.95l3.31,12.54c15.44-15.67,12.72-37.5,16.42-57.41h-14.46c.12.77-.01,1.48-.41,2.13l14.73,1.99c-.09-1.44-.11-2.71.14-4.13l-13.71,1.79c3.49,8.04,5.49,18.07,15.15,20.94s17.72-4.58,24.67-9.47c9.14-6.44,20.29-6.84,31.28-6.9,13.15-.08,26.3.41,39.1-3.17,5.95-1.67,6.65-8.22,3.31-12.54-1.22-1.57-2.65-2.67-4.23-3.88-3.67-2.83-10.22.1-11.02,4.48-2.75,15.16,10,21.63,22.38,25.38,14.86,4.5,26.33,15.54,42.11,17.66,3.22.43,6.41-2.64,7.23-5.51.99-3.46-.8-6.43-3.45-8.47-3.79-2.91-7.89-4.05-12.57-4.6-5.6-.67-9.43,6.88-6.48,11.29,5.05,7.54,12.1,11.94,20.44,15.16,7.54,2.91,15.81,4.36,22.7,8.77,16.74,10.7,26.71,30.73,38.75,45.94l10.61-10.61c-2.33-2.17-4.5-4.36-6.25-7.04l-11.78,9.09c2.7,2.67,5.07,5.58,7.42,8.56l9.09-11.78c-8.29-4.2-13.58-11.89-21.61-16.21-9.09-4.89-18.24-9.69-27.42-14.42-17.67-9.11-35.46-17.98-53.22-26.9-35.73-17.95-71.3-36.26-105.49-57.02-4.92-2.99-11.24.88-11.29,6.48-.07,8.32,9.54,14.78,17.28,14.92,6.2.11,10.62-6.26,7.44-11.91-2.61-4.65-8.96-7.23-13.43-9.49-3.39-1.71-8.42-1.14-10.26,2.69-3.45,7.17-5.06,15.12-.4,22.18,3.91,5.92,10.55,9.06,16.85,11.77,8.01,3.45,14.79,7.68,21.54,13.23,8.01,6.57,16.31,12.59,24.89,18.39,35.79,24.19,73.94,44.58,112.81,63.33,38.92,18.78,78.72,35.65,117.66,54.38,19.8,9.52,39.12,19.98,58.52,30.28,16.75,8.89,33.75,17.29,50.59,26,13.04,6.74,32.7,14.94,43.73.38,13.07-17.26-4.65-33.31-17.16-43.79-7.35-6.16-18.02,4.4-10.61,10.61h0Z"/>
        <path class="cls-2" d="m415.28,193.88c35.21,19.26,69.85,39.52,105.13,58.66,8.49,4.6,16.07-8.34,7.57-12.95-35.28-19.14-69.92-39.4-105.13-58.66-8.47-4.63-16.05,8.31-7.57,12.95h0Z"/>
        <path class="cls-2" d="m67.94,123.73c2.58,2.48,5.17,4.96,7.75,7.44l10.61-10.61c-12.54-10-5.08-28.27.43-40.31,7.72-16.88,19.03-31.88,35-41.68,5.18-3.18,4.78-12.36-1.79-13.71-1.16-.24-2.25-.62-3.4-.92l3.31,12.54c2.23-2.3,4.46-4.59,6.7-6.87l-10.61-10.61c-2.2,2.32-4.43,4.61-6.7,6.87-7,6.95,3.27,16.57,10.61,10.61,14.25-11.59,30.84,1.96,43,9.76,15.7,10.07,31.38,20.22,46.56,31.06,7.6,5.43,15.08,11.03,22.35,16.89,3.46,2.79,6.88,5.64,10.25,8.55s7.72,5.98,10.39,9.72c2.25,3.15,3.48,6.9,5.71,10.07,2.63,3.74,5.93,6.8,10.06,8.8,7.87,3.81,17.17,3.36,25.59,5.5,18.97,4.81,35.98,14.58,53.79,22.37,3.74,1.63,8.01,1.07,10.26-2.69,1.89-3.16,1.01-8.64-2.69-10.26-16.68-7.29-32.7-16.24-50.1-21.79-4.3-1.37-8.67-2.53-13.1-3.4-4.86-.95-10.39-.76-15.06-2.31-8.27-2.75-9.8-13.05-15.5-18.85-13.75-13.97-30.59-25.8-46.54-37.09-16.25-11.5-33.02-22.24-49.77-32.97-8.92-5.72-17.31-11.11-28.05-12.45-10.46-1.31-19.68,1.89-27.77,8.47l10.61,10.61c2.27-2.25,4.5-4.54,6.7-6.87,6.63-7-3.81-17.51-10.61-10.61-2.24,2.28-4.47,4.57-6.7,6.87-3.85,3.97-2.26,11.12,3.31,12.54,1.15.29,2.24.68,3.4.92l-1.79-13.71c-19.35,11.87-33.18,30.14-42.04,50.82-7.41,17.3-13.71,40.95,3.57,54.72,7.36,5.86,17.75-3.76,10.61-10.61-2.58-2.48-5.17-4.96-7.75-7.44-6.97-6.68-17.59,3.91-10.61,10.61h0Z"/>
        <path class="cls-2" d="m575.02,282.73c-5.46,11.13-12.11,21.69-19.7,31.49-4.04,5.22-8.37,10.23-12.89,15.04-3.78,4.02-7.72,8.69-12.37,11.7-16.26,10.54-39.08-6.57-51.64-16.11-3.25-2.47-8.36-.49-10.26,2.69-2.29,3.83-.52,7.82,2.69,10.26,17.44,13.25,42.22,28.34,64.38,17.46,5.74-2.82,10.33-7.71,14.75-12.22,5.02-5.11,9.77-10.49,14.25-16.08,9.13-11.4,17.3-23.53,23.74-36.66,4.24-8.64-8.7-16.25-12.95-7.57h0Z"/>
        <path class="cls-2" d="m415.63,324.48c1.7,1.83,2.01,5.24,3.24,7.41,2.25,3.99,5.23,5.08,9.41,6.6,7.26,2.64,14.72,5.21,21.25,9.33,13.48,8.52,27.78,15.54,42.06,22.59,7.04,3.47,15.42,6.54,21.75,11.19,4.56,3.35,6.82,8.36,12.98,9.69.37.08,4.91,1.06,2.19.25.72.22,1.43.52,2.16.71,2.17.57,4.25.81,6.46.37,6.48-1.31,9.49-7.21,11.37-12.99-3.67,1.49-7.34,2.99-11.02,4.48,15.31,7.82,24.59-15.06,30.88-24.8h-12.95l-.32-.95,12.95,7.57c5.88-12.26,13.21-23.78,18.49-36.33,5.6-13.31,7.51-26.76,5.53-41.08-.56-4-5.69-6.23-9.23-5.24-4.32,1.21-5.8,5.18-5.24,9.23,3.42,24.6-12.46,44.9-22.51,65.86-4.17,8.7,7.5,15.61,12.95,7.57,3.06-4.52,2.82-9.52.32-14.19-2.78-5.18-10.02-4.53-12.95,0-2.46,3.81-4.49,7.9-6.95,11.72-1.29,2-2.62,3.91-4.21,5.68-.48.54-1.7,1.33-1.77,1.64-.82.45-.87.48-.14.08.98-.26,1.89-.16,2.72.3-4.44-2.27-9.46-.3-11.02,4.48-.58,1.78-1.82,3.24.46,2.25.86-.37.7.24-.42-.29-.41-.19-.89-.33-1.33-.45-1.24-.32-2.94-.27-3.38-.52-1.89-1.08-3.12-3.61-4.6-5.16-4.38-4.58-12.05-7.22-17.66-10.05-6.04-3.05-12.12-6-18.18-9.01s-11.63-5.86-17.33-9c-6.6-3.63-12.77-8.36-19.45-11.76-5.63-2.87-12.27-4.77-18.2-7.01-.85-.32-1.7-.64-2.56-.94-1.34-.56-1.19-.36.43.6-.26-.96-.74-2.01-1.09-2.93-1.12-2.9-2.37-5.24-4.49-7.52-6.6-7.08-17.18,3.55-10.61,10.61h0Z"/>
        <path class="cls-2" d="m332.37,187.1c25.87,11.8,51.28,24.57,76.18,38.31,8.46,4.67,16.03-8.28,7.57-12.95-24.9-13.74-50.31-26.51-76.18-38.31-3.71-1.69-8.03-1.03-10.26,2.69-1.92,3.21-.99,8.59,2.69,10.26h0Z"/>
        <path class="cls-2" d="m328.69,276.13c9.65,0,9.67-15,0-15s-9.67,15,0,15h0Z"/>
        <path class="cls-2" d="m157.37,168.6c9.65,0,9.67-15,0-15s-9.67,15,0,15h0Z"/>
        <path class="cls-2" d="m585.88,294.18c9.65,0,9.67-15,0-15s-9.67,15,0,15h0Z"/>
        <path class="cls-2" d="m360.54,171.72c14.5,8.7,29.06,17.32,43.67,25.84,1.93-4.57,3.85-9.14,5.78-13.71-3.8-1.2-6.91-5.28-10.05-7.6-4.02-2.98-8.39-5.09-13.05-6.85l-1.99,14.73c4.49-.53,7.85,6.19,11.04,8.78,3.96,3.21,8.68,4.96,13.46,6.59,9.16,3.11,13.09-11.37,3.99-14.46-5.65-1.92-8.64-4.3-12.64-8.69-4.08-4.48-9.58-7.95-15.85-7.21-8.4.98-10.19,11.63-1.99,14.73,8.79,3.32,14.18,11.63,23.1,14.45,8.18,2.59,13.06-9.46,5.78-13.71-14.61-8.52-29.17-17.14-43.67-25.84-8.3-4.98-15.85,7.99-7.57,12.95h0Z"/>
      </g>
      <path class="cls-2" d="m57.55,79.5c-2.08,9.8-3.99,19.92-4.53,29.95-.47,8.58,2.13,16.27,8.16,22.47,5.65,5.82,13.16,9.61,20.3,13.23,9.03,4.58,18.08,9.11,27.12,13.67,17.81,8.98,35.59,18.02,53.44,26.93,8.59,4.29,17.66,7.44,26.26,11.64,9.2,4.49,17.86,10.36,26.65,15.61,8.31,4.96,15.86-8,7.57-12.95-7.74-4.62-15.38-9.48-23.27-13.83-7.82-4.31-16.4-7.01-24.44-10.86-16.75-8.03-33.22-16.68-49.81-25.04-15.64-7.88-32.29-14.91-47.12-24.25-6.14-3.87-10.19-8.17-9.89-15.76.35-8.98,2.17-18.06,4.03-26.83,2-9.42-12.45-13.44-14.46-3.99h0Z"/>
      <path class="cls-2" d="m74.1,77.62c7.61-27.71,28.2-54.03,58.72-56.58,3.71-.31,6.9-2.61,7.37-6.5.39-3.29-1.63-7.73-5.37-8.23-3.52-.47-7.04-.95-10.56-1.42l-1.99,14.73c14.91-1.19,27.84,8.72,39.94,16.1,12.73,7.77,25.52,15.46,38.13,23.42,12.28,7.75,24.42,15.78,35.94,24.63,5.58,4.29,10.99,8.8,16.21,13.52,2.63,2.38,5.21,4.81,7.73,7.3,2.2,2.18,5.79,4.93,7.03,7.89l11.02-8.47c-6.43-4.81-11.02-11.25-14.28-18.52l-8.47,11.02c18.53,6.87,34.02,19.7,50.69,29.96,8.41,5.18,17.16,9.39,26.37,12.93,8.41,3.24,18.46,7.08,20.43,16.94l9.23-9.23c-15.97-5.48-31.84-11.24-47.6-17.3-7.88-3.03-15.73-6.13-23.55-9.3-3.61-1.46-7.21-2.94-10.81-4.44-1.58-.66-7.04-2.59-7.3-3.57l-7.23,9.49c6.83-.41,14.83-.5,20.35,4.22l7.3-12.54c-20.93-6.56-41.77-13.67-61.67-22.97s-38.34-21.02-55.44-35.05c-16.6-13.61-34.44-27.5-56.74-28.9-20.05-1.25-39.5,10.46-44.61,30.39-2.98,11.63-2.49,24.48-1.35,36.32,1.3,13.4,4.1,26.53,8.49,39.25,2.76,7.98,14.31,6.64,14.73-1.99,1.53-31.02,13.05-61.34,32.76-85.39,2.39-2.92,3.02-6.7.59-9.85-2.1-2.72-6.63-4.13-9.68-1.93-20.18,14.56-35.03,34.82-42.51,58.6-2.13,6.76,7.82,13.34,12.54,7.3,14.64-18.76,29.27-37.52,43.91-56.28l-12.8-5.3c-.89,8.96-6.09,16.84-10.12,24.65-4.44,8.62-8.23,17.63-11.23,26.85s-5.17,18.65-6.55,28.22c-1.02,7.09-.9,16.24,7.01,19.39,8.59,3.43,14.82-3.98,16.74-11.54,2.2-8.66,3.43-17.59,5.37-26.32s4.13-17.31,7.57-25.47c1.66-3.94,3.66-7.76,5.93-11.38,1.48-2.35,3.64-6.87,6.7-6.64l-7.5-7.5c.83,8.37-2.37,15.57-6.27,22.78-4.18,7.74-8.52,15.26-11.68,23.5s-5.21,17.3-6.22,26.3c-.84,7.52-2.15,18.49,7.03,21.5,9.51,3.12,14.15-7.1,15.68-14.4,1.92-9.16,3.24-18.43,4.98-27.63,3.09-16.39,7.51-33.3,18.96-45.98l-12.54-3.31c2.25,15.4-5.73,30.56-11.03,44.51-5.56,14.63-9.42,30.64-4.38,45.99,1.84,5.59,10.78,8.01,13.71,1.79,6.36-13.52,11.42-27.6,14.68-42.19,2.48-11.08,2.42-25.49,11.25-33.77l-12.54-3.31c3.33,8.68.83,17.36-1.45,25.99-2.49,9.43-4.84,18.9-6.96,28.42-1.13,5.08-2.2,10.17-3.21,15.27-.86,4.35-2.25,9.01-1.35,13.46,1.79,8.87,12.08,12.33,18.66,5.83,5.59-5.53,7.27-15.24,8.87-22.65,1.76-8.14,2.84-16.4,4.01-24.64,2.3-16.27,4.86-32.82,14.08-46.79h-12.95c5.13,6.65,10.63,12.77,16.97,18.3l9.09-11.78c-11.41-7.34-22.81-14.68-34.22-22.02-5.15-3.31-10.84,1.15-11.29,6.48-.83,9.81,1.86,19.19,2.71,28.88.72,8.29-.96,15.87-4.17,23.5-6.39,15.16-15.57,28.86-16.3,45.8l12.8-5.3-.46-.53,1.17,9.09c-3.91,1.53-4.76,2.53-2.55,3,.89.3,1.78.6,2.66.9,1.77.61,3.54,1.22,5.31,1.85,3.24,1.15,6.46,2.33,9.67,3.55,6.7,2.53,13.33,5.22,19.9,8.06,4.49,1.94,12.07-.15,11.29-6.48-1.35-10.81-8.18-19.79-19.06-22.43-6.68-1.62-13.52,7.57-7.3,12.54,7.19,5.75,15.28,7.93,23.99,10.41,4.93,1.4,14.31,4.23,15.13,10.48l3.71-6.48c-4.93,2.41-7.8-8.84-8.4-11.41-1.62-6.85-3.14-13.41-6.55-19.65-6.39-11.68-16.78-20.16-29.05-25.01l-3.99,14.46c34.77,12.7,68.59,27.77,101.32,45.06l3.79-13.98c-29.8-.92-57.02-14.45-83.16-27.53l-5.78,13.71c19.38,5.37,38.97,9.82,58.76,13.37,7.47,1.34,12.31-6.66,7.3-12.54-19.33-22.66-43.39-41.13-70.28-53.93-2.52,4.32-5.05,8.63-7.57,12.95,59.96,25.97,117.87,56.31,175.69,86.67,1.93-4.57,3.85-9.14,5.78-13.71-24.46-4.09-48.14-11.54-71.26-20.39-11.28-4.32-22.45-8.95-33.57-13.67-9.61-4.08-21.08-7.42-27.92-15.77l-7.3,12.54c27.63,9.58,55.26,19.16,82.89,28.74,5.33,1.85,11.07,4.63,16.82,2.96,6.3-1.82,8.37-8.26,6.41-14.01-3.86-11.37-13.58-21.12-23.01-28.04-6.95-5.1-15.06,5.94-9.09,11.78,8.24,8.05,21.81,25.87,8.28,35.81-5.31,3.9-12.53,4.19-18.84,3.72-9.01-.67-17.78-3-26.84-3.35-8.29-.33-10.41,13.21-1.99,14.73,20.61,3.73,40.93,8.79,60.89,15.16-.6-4.57-1.19-9.14-1.79-13.71,2.06-.47,3.43.28,4.13,2.27-1.53-3.73-4.99-6.42-9.23-5.24-3.54.99-6.79,5.44-5.24,9.23,2.95,7.18,10.74,11.18,17.91,6.7,5.57-3.49,4.39-11.73-1.79-13.71-19.95-6.37-40.28-11.43-60.89-15.16l-1.99,14.73c19.46.76,43.65,10.24,58.98-7.32,15.47-17.72,3.13-40.68-10.98-54.46l-9.09,11.78c3.63,2.66,6.93,5.86,9.78,9.35,1.32,1.61,2.5,3.32,3.6,5.08.58.92,1.13,1.86,1.65,2.81,1.32,2.39.52,2.91,3.12-.22,4.52-5.45,2.38-1.51,1.24-2.58-.8-.75-3.13-1.06-4.28-1.46-2.51-.87-5.02-1.74-7.54-2.61-5.34-1.85-10.68-3.7-16.01-5.55-21.04-7.29-42.07-14.59-63.11-21.88-7.76-2.69-11.58,7.3-7.3,12.54,7.21,8.81,18.23,12.71,28.38,17.02,12.03,5.11,24.07,10.19,36.25,14.93,24.23,9.43,49.05,17.44,74.74,21.73,7.79,1.3,13.89-9.45,5.78-13.71-57.83-30.35-115.73-60.7-175.69-86.67-3.74-1.62-8-1.08-10.26,2.69-1.95,3.25-.96,8.52,2.69,10.26,25.89,12.33,48.64,29.77,67.25,51.59l7.3-12.54c-19.79-3.55-39.39-8.01-58.76-13.37-7.99-2.21-13.55,9.82-5.78,13.71,28.6,14.32,58.15,28.57,90.73,29.58,7.33.23,10.35-10.51,3.79-13.98-33.86-17.89-68.93-33.43-104.9-46.57-9.16-3.34-12.81,10.98-3.99,14.46,13.42,5.31,21.33,17.15,24.38,30.78,1.69,7.56,3.67,15.31,9.75,20.61s14.05,6.78,21.44,3.17c2.1-1.02,4.03-4.09,3.71-6.48-1.28-9.79-7.26-16.93-16.09-21.22s-19.87-4.24-27.42-10.27l-7.3,12.54c3.81.93,7.53,3.77,8.05,7.97l11.29-6.48c-9.77-4.22-19.63-8.22-29.63-11.85-7.26-2.64-20.86-9.97-25.89-.11-1.63,3.2-1.11,6.42,1.17,9.09l.46.53c4.47,5.24,12.54.72,12.8-5.3.68-15.93,11.22-29.69,16.71-44.19,3.04-8.04,4.5-16.51,3.76-25.1-.83-9.69-3.53-19.09-2.71-28.88l-11.29,6.48c11.41,7.34,22.81,14.68,34.22,22.02,7.07,4.55,15.55-6.13,9.09-11.78-5.31-4.64-10.31-9.68-14.62-15.27-3.47-4.49-9.59-5.1-12.95,0-9.02,13.67-12.54,29.62-14.91,45.59-1.18,7.97-2.15,15.98-3.6,23.91-.72,3.94-1.55,7.85-2.59,11.72-.55,2.05-1.16,4.08-1.83,6.09-.28.82-.56,1.64-.85,2.45-.91,1.38-.97,1.6-.19.67h3.99c1.39,2.9,2.06,3.61,2,2.13v-.48c.84-.8.86-4.43,1.12-5.75.76-3.83,1.55-7.65,2.38-11.46,1.72-7.94,3.58-15.86,5.58-23.74,3.47-13.67,9.01-28.54,3.66-42.46-2.02-5.26-8.14-7.43-12.54-3.31-9.83,9.21-11.54,22.37-13.97,34.92-2.95,15.22-7.71,30.05-14.31,44.08l13.71,1.79c-5-15.21,1.41-30.63,7.03-44.74,5.92-14.88,10.74-29.57,8.38-45.75-.82-5.59-9.04-7.18-12.54-3.31-10.04,11.12-16.14,24.8-19.89,39.2-2.01,7.75-3.38,15.64-4.72,23.53-.68,4-1.35,8-2.1,11.98-.35,1.84-.7,3.68-1.09,5.51-.29,1.41-1.96,4.64-.06,4.14h3.99c1.77,3.53,2.51,4.09,2.21,1.68.02-.9.05-1.79.1-2.69.1-2.09.26-4.18.51-6.25.42-3.48,1.11-6.94,1.94-10.35,1.83-7.49,4.54-14.66,8.15-21.46,6.77-12.77,15.57-25.6,14.07-40.77-.42-4.28-3.11-7.17-7.5-7.5-9.21-.7-15.25,7.06-19.65,14.07s-7.69,14.82-10.28,22.7-4.45,16.12-6.12,24.31c-.9,4.39-1.74,8.8-2.62,13.19-.37,1.84-.71,8.13-2.36,8.85l3.79-1.02c2.29,3,3.05,3.43,2.28,1.31.04-.51.05-1.02.04-1.54.02-1.48.39-3.07.63-4.52.68-4.17,1.53-8.32,2.53-12.43,1.93-7.92,4.43-15.72,7.51-23.27,6.08-14.88,16.22-28.04,17.84-44.42.61-6.16-8.88-10.33-12.8-5.3-14.64,18.76-29.27,37.52-43.91,56.28l12.54,7.3c6.23-19.82,18.74-37.46,35.62-49.64l-9.09-11.78c-22.36,27.29-35.41,60.73-37.15,96l14.73-1.99c-6.76-19.56-10.65-41.38-8.18-62.1,1-8.42,4.36-15.99,11.82-20.49s15.89-5.37,24.08-3.77c19.67,3.86,34.58,18.66,49.74,30.63,15.7,12.39,32.81,22.6,50.94,31.02,20.84,9.67,42.56,17.24,64.46,24.11,6.92,2.17,13.05-7.62,7.3-12.54-8.78-7.5-19.7-9.29-30.96-8.61-4.87.29-8.51,4.55-7.23,9.49,2.19,8.48,10.56,11.05,17.77,14.05,8.99,3.74,18.03,7.38,27.1,10.92,18.14,7.09,36.44,13.78,54.86,20.11,5.8,1.99,10.27-4.02,9.23-9.23-2.14-10.73-10.75-18.48-20.27-23.02-10.24-4.87-20.79-8.28-30.61-14.11-19.03-11.29-36.13-25.41-57.09-33.18-6.82-2.53-10.86,5.7-8.47,11.02,4.36,9.72,11.18,17.55,19.67,23.9,5,3.75,13.48-2.58,11.02-8.47-3.1-7.42-8.94-12.76-14.71-18.21s-11.42-10.27-17.44-15.03c-12.83-10.16-26.34-19.37-40.15-28.12s-28.02-17.28-42.07-25.85c-13.71-8.36-28.29-18.02-45.09-16.67-3.71.3-6.9,2.62-7.37,6.5-.39,3.29,1.63,7.73,5.37,8.23,3.52.47,7.04.95,10.56,1.42l1.99-14.73c-37.38,3.13-63.66,32.93-73.18,67.59-2.56,9.32,11.91,13.3,14.46,3.99h0Z"/>
      <path class="cls-2" d="m162.58,123.29c1.19,9.37,9.12,16.67,16.9,21.33,8.3,4.97,15.85-7.99,7.57-12.95-2.11-1.26-3.95-2.63-5.71-4.36-.79-.78-1.6-1.61-2.29-2.46-.29-.36-.59-.78-.86-1.19-.43-.65-.85-2.22-.61-.37-.51-4.02-3.08-7.5-7.5-7.5-3.66,0-8.01,3.45-7.5,7.5h0Z"/>
      <path class="cls-2" d="m242.65,111.98c-.51,4.52,2.45,8.17,5.08,11.48,2.06,2.59,4.3,5.03,6.68,7.33,2.91,2.82,7.71,2.9,10.61,0s2.92-7.78,0-10.61c-1.7-1.65-3.33-3.35-4.88-5.14-.5-.59-1.08-1.25-1.5-1.79-.39-.5-.76-1.02-1.12-1.54-.15.09-.11.18.13.27.46-4.03-3.77-7.5-7.5-7.5-4.43,0-7.04,3.46-7.5,7.5h0Z"/>
      <path class="cls-2" d="m95.96,138.08c21.85,9.69,43.9,18.91,66.15,27.64,3.8,1.49,8.2-1.64,9.23-5.24,1.21-4.24-1.48-7.75-5.24-9.23-21.04-8.25-41.9-16.96-62.56-26.12-3.73-1.65-8.02-1.06-10.26,2.69-1.9,3.18-1,8.62,2.69,10.26h0Z"/>
      <path class="cls-2" d="m185.9,197.79c18.8,12.59,37.48,26.05,57.86,36,9.05,4.42,15.49,12.19,24.94,16,9.3,3.75,19.5,4.51,29.41,5.18s9.6-14.35,0-15c-8.63-.58-17.83-1.08-25.78-4.85-4.13-1.96-7.22-4.96-10.71-7.82-4.19-3.43-8.68-5.57-13.46-8.04-19.12-9.9-36.84-22.47-54.69-34.42-8.04-5.38-15.56,7.6-7.57,12.95h0Z"/>
      <path class="cls-2" d="m228.92,215.46c22.37,7.2,41.26,22.99,64.87,26.69,4.03.63,8.02-1.03,9.23-5.24,1.02-3.55-1.24-8.6-5.24-9.23-23.48-3.68-42.55-19.5-64.87-26.69-9.21-2.97-13.15,11.51-3.99,14.46h0Z"/>
      <path class="cls-2" d="m282.56,227.56c10.46,6.28,22.06,10.1,33.53,14.05,12.44,4.29,24.51,9.43,36.55,14.71,3.74,1.64,8.01,1.07,10.26-2.69,1.9-3.16,1.01-8.64-2.69-10.26-12.16-5.33-24.34-10.66-36.87-15.09-11.34-4.01-22.83-7.44-33.22-13.67-8.3-4.98-15.85,7.98-7.57,12.95h0Z"/>
      <path class="cls-2" d="m276.22,229.38c24.08,10.73,48.29,21.15,72.61,31.29,3.77,1.57,8.21-1.7,9.23-5.24,1.23-4.3-1.52-7.67-5.24-9.23-23.13-9.64-46.14-19.58-69.03-29.78-3.73-1.66-8.02-1.05-10.26,2.69-1.91,3.18-1,8.62,2.69,10.26h0Z"/>
      <path class="cls-2" d="m353.76,300.05c.52.37,1.25,2.38,1.64,3.06,1,1.73,2.01,3.46,3.15,5.11,2.54,3.69,5.34,6.65,8.91,9.33,3.24,2.43,8.38.52,10.26-2.69,2.24-3.84.56-7.82-2.69-10.26-6.09-4.57-7.39-12.98-13.7-17.49-3.3-2.36-8.35-.58-10.26,2.69-2.2,3.77-.61,7.9,2.69,10.26h0Z"/>
      <path class="cls-2" d="m356.06,304.77c12.99,6.84,23.6,17.25,37.46,22.53,7.28,2.78,14.15,5.26,20.96,9.13s13,7.41,20.06,10.17c3.8,1.48,8.19-1.63,9.23-5.24,1.21-4.23-1.48-7.76-5.24-9.23-6.59-2.57-12.56-6.5-18.72-9.92-6.62-3.68-13.47-6.16-20.55-8.74-13.18-4.8-23.32-15.19-35.63-21.66-8.54-4.49-16.13,8.45-7.57,12.95h0Z"/>
      <path class="cls-2" d="m374.34,319.75c5.24,5.45,12,8.53,19.15,10.67s14.67,3.33,21.04,7.69c1.26-4.66,2.52-9.32,3.79-13.98-2.82-.19-5.4-.85-8.05-1.77-7.97-2.77-13.39,9.91-5.78,13.71,13.92,6.96,28.11,13.25,42.23,19.78,2.98,1.38,4.16,3.06,6.42,5.32,2.45,2.46,5.43,4.52,8.23,6.56,5.96,4.33,12.26,8.14,18.8,11.52,8.56,4.43,16.16-8.51,7.57-12.95-6.54-3.39-12.84-7.19-18.8-11.52-5.2-3.79-8.73-9.15-14.65-11.88-14.13-6.52-28.31-12.83-42.23-19.78-1.93,4.57-3.85,9.14-5.78,13.71,3.93,1.37,7.89,2.03,12.04,2.31,7.98.52,9.43-10.11,3.79-13.98-6.05-4.14-13.06-6.1-20.06-7.95-6.24-1.65-12.49-3.27-17.09-8.06-6.7-6.97-17.3,3.64-10.61,10.61h0Z"/>
      <path class="cls-2" d="m483.94,379.94c9.04,4.98,18.3,9.73,26.81,15.59,3.48,2.4,6.76,5.04,10.82,6.4,4.89,1.65,9.92.83,14.95,1.08v-15c-3.18.23-5.65.9-8.49,2.3-5.74,2.85-4.32,12.31,1.79,13.71,14.31,3.28,24.42-4.31,33.01-14.87,4.05-4.98,8.3-9.81,11.31-15.51s9.62-8.25,9.02-15.8c-.77-9.55-14.57-9.75-15,0-.13,3.01.94,6.17-1.09,8.53s-5.05,4.01-7.22,6.38c-6.52,7.1,4.06,17.74,10.61,10.61,3.21-3.49,7.54-5.81,10.13-9.9,3.13-4.95,2.34-10.09,2.58-15.62h-15c-.07-.9.6-.67-.77.43-.88.71-1.8,1.42-2.57,2.25-1.52,1.64-2.6,3.59-3.63,5.55-2.17,4.1-4.94,7.53-7.86,11.12-4.98,6.14-10.47,14.44-19.52,12.37.6,4.57,1.19,9.14,1.79,13.71l.92-.26c9.59-.69,9.71-14.51,0-15-3.95-.2-8.22.86-11.83-1.06-3.29-1.75-6.2-4.32-9.32-6.34-7.69-4.97-15.85-9.21-23.86-13.63-8.46-4.66-16.03,8.28-7.57,12.95h0Z"/>
      <path class="cls-2" d="m555.03,302.64l17.25-15.21c3.16-2.79,8.86-10.03,13.72-7.73,5.26,2.49,5.5,9.93,5.43,14.87-.1,6.89-.96,13.76-2.39,20.5s-3.31,13.01-5.74,19.26c-1.25,3.2-2.68,6.32-4.23,9.39-.79,1.55-1.58,3.14-2.47,4.63-.26.52-.57,1.01-.91,1.48-.94,1.11.1,1.39,3.11.84.08-.17-1.2-5.12-1.22-5.73-.14-3.8-.12-7.6.04-11.39.33-7.58,1.36-15.04,2.95-22.46,2.01-9.38-12.01-13.39-14.46-3.99-3.42,13.11-8.24,25.71-14.72,37.62-4.37,8.03-10.95,21.96-21.76,21.86,2.16,3.76,4.32,7.52,6.48,11.29,6.49-12.55,15.58-23.45,27.12-31.67,7.05-5.02,2.72-15.14-5.78-13.71-18.49,3.13-45.09,13.09-49.77,33.76-.86,3.78,1.13,8.34,5.24,9.23l4.9,1.06c4.96,1.07,9.19-2.19,9.49-7.23.89-14.54,4.48-28.82,10.68-42.01l-13.98-3.79-1.37,15.39c-.69,7.8,10.32,9.66,13.98,3.79l7.09-11.4c4.03-6.49-3.89-13.9-10.26-10.26-10.93,6.25-22.58,10.42-34.96,12.71,2.82,3.67,5.65,7.34,8.47,11.02-.24-.07-.45-.02-.64.14l-5.3-12.8c-3.41,4.41-6.86,8.8-10.24,13.24-3.03,3.99-5.32,8.8-2.86,13.71,2.21,4.42,6.48,5.42,11,5.89,5.88.61,11.77,1.09,17.66,1.64l-5.3-12.8c-2.31,1.86-4.61,3.71-6.92,5.57,4.18,2.43,8.36,4.86,12.54,7.3,1.44-9.49,4-18.75,8.02-27.47l-13.98-3.79c-.01,6.32-3.46,12.08-2.13,18.55.6,2.92,2.05,5.57,4.09,7.75.81.87,1.74,1.6,2.63,2.39.6.49,1.17,1.01,1.72,1.55.38.39.23.13-.46-.78-.43,3.87,3.79,7.72,7.5,7.5,7.7-.46,14.18-3.14,20.03-8.16,4.16-3.57,2.04-11.46-3.31-12.54-9.35-1.88-18.8-2.8-28.33-2.56-7.39.18-16.5,1.52-22.81-3.33s-10.01-11.78-16.09-16.62c-6.38-5.09-13.55-8.78-21.37-11.16v14.46c20.5-8.11,43.1-8.82,63.38-17.58,10.14-4.38,16.06-11.34,20.8-21.12,4.99-10.27,10.88-20.05,18.04-28.96-4.18-2.43-8.36-4.86-12.54-7.3-1.98,10.94-5.3,21.47-10.24,31.44-4.39,8.85,7.19,15.13,12.95,7.57,5.1-6.68,10.19-13.36,15.29-20.04-4.57-1.93-9.14-3.85-13.71-5.78-1.69,5.65-4.22,10.67-7.58,15.51l12.95,7.57c5.31-11.88,15.55-19.55,28.42-21.43,6.84-1,6.67-10.58,1.79-13.71-13.26-8.5-26.81-16.55-40.65-24.07-11.15-6.06-27.29-17.08-40.64-12.73-6.49,2.12-10.65,9.48-6.4,15.67,3.75,5.46,12.68,7.78,18.37,10.69,13.7,7,26.92,14.87,39.67,23.48,1.26-4.66,2.52-9.32,3.79-13.98-33.18-1.37-62.41-19.47-89.87-36.45-3.47-2.15-8.22-.72-10.26,2.69-2.29,3.82-.52,7.82,2.69,10.26,24.36,18.5,50.69,34.07,77.01,49.55,1.93-4.57,3.85-9.14,5.78-13.71-39.49-11.96-76.91-29.61-111.34-52.35-1.26,4.66-2.52,9.32-3.79,13.98,14.85,1.91,30.01,6.17,43.33,13.09,5.17,2.68,10.35,5.92,13.96,10.6,1.73,2.24,3.09,4.81,3.88,7.53.4,1.37.63,2.59.69,4.01.03.86,0,1.71-.09,2.56-.71,1.74-.31,1.8,1.21.19-2.48-1.51-6.15-2.28-8.87-3.39-3.64-1.49-7.28-2.98-10.92-4.47-7.28-2.98-14.55-5.95-21.83-8.93-14.88-6.09-29.87-11.98-44.64-18.34-6.23-2.69-12.4-5.54-18.37-8.76-6.29-3.39-12.4-8.72-19.43-10.45-6.09-1.5-13.21.53-16.63,6.03s-1.85,12.45,1.71,17.61c3.89,5.63,9.44,10.29,14.32,15.04,5.63,5.47,11.36,10.82,17.31,15.94,10.93,9.41,22.56,18.03,35.12,25.15,28.56,16.19,60.37,25.4,91.74,34.39,5.08,1.45,9.01-2.51,9.49-7.23,1.31-12.84-17.91-15.84-26.61-19.04-12.57-4.62-25-9.65-37.23-15.11-11.97-5.34-23.77-11.06-35.38-17.14-10.83-5.68-22.7-11.08-31.06-20.26-2.43,4.18-4.86,8.36-7.3,12.54,19.17,4.22,35.84,16.37,52.4,26.35,8.48,5.1,17.94,9.66,25.81,15.65,3.01,2.29,3.38,5.26,2.81,8.84-.33,2.08-1,4.13-1.68,6.12-.33.97-.61,2.04-1.07,2.95-.12.4-.29.79-.51,1.15-.17.56-.28.57-.34.04h3.99c-5.01-.88-10.11-6.73-14.19-9.72-5.05-3.7-10.2-7.26-15.48-10.63-9.95-6.34-20.36-11.75-31.17-16.47-19.91-8.71-41.4-15.98-57.41-31.28-2.43,4.18-4.86,8.36-7.3,12.54,11.23,2.43,20.78,9.76,30.59,15.38,10.85,6.21,21.94,12.02,33.22,17.4,22.33,10.66,45.42,19.72,69.03,27.11,9.23,2.89,13.18-11.59,3.99-14.46-23.56-7.37-46.54-16.39-68.74-27.18-10.97-5.33-21.75-11.07-32.3-17.19-10.19-5.91-20.1-13-31.8-15.53-7.01-1.51-12.98,7.1-7.3,12.54,13.43,12.83,30.05,20.71,46.96,27.89s34.69,15.36,50.64,26.14c3.95,2.67,7.83,5.45,11.66,8.3s7.71,6.72,12.23,8.6c11.29,4.68,17.03-5.09,20.02-14.33,2.83-8.75,3.55-18.77-2.68-26.26-2.81-3.38-6.66-5.63-10.38-7.87-5.05-3.04-10.1-6.08-15.15-9.12-19.48-11.73-39.31-26.44-61.87-31.4-7.38-1.62-12.41,6.91-7.3,12.54,7.61,8.37,17.64,13.79,27.48,19.09,10.99,5.93,22.15,11.52,33.47,16.78,11.06,5.14,22.27,9.95,33.6,14.47,5.8,2.31,11.63,4.54,17.5,6.67,2.93,1.07,5.87,2.11,8.82,3.14,1.4.49,2.95,1.31,4.43,1.52l.6.26c1.59,1.15,1.59.82,0-.99l9.49-7.23c-28.17-8.07-56.68-16.15-82.7-29.9-12.96-6.85-25-15.12-36.16-24.61-5.52-4.69-10.85-9.59-16.08-14.6-2.62-2.51-5.2-5.04-7.77-7.6s-5.81-5.04-7.64-8.15c.49.83-1.19-2.04-.93-2.05l-.8,1.77c-.26-.14-.08-.17.54-.1.27.3,3.23,1.39,3.72,1.68,1.4.83,2.75,1.77,4.13,2.63,6.81,4.24,13.98,7.84,21.28,11.14,14.54,6.57,29.45,12.34,44.21,18.38,14.55,5.95,29.11,11.91,43.66,17.86,5.93,2.43,12.56,5.05,18.52,1.08s6.9-12.11,6.1-18.68c-1.87-15.36-13.94-26.26-27.15-32.81-15.54-7.7-32.28-12.18-49.43-14.39-7.99-1.03-9.33,10.32-3.79,13.98,35.46,23.41,74.26,41.54,114.92,53.86,8.2,2.48,13.06-9.42,5.78-13.71-26.32-15.48-52.66-31.06-77.01-49.55l-7.57,12.95c29.9,18.49,61.39,37.01,97.44,38.5,7.9.33,9.58-10.06,3.79-13.98-8.67-5.85-17.54-11.38-26.66-16.5-4.29-2.41-8.63-4.74-13.01-6.97-2.46-1.26-4.94-2.49-7.44-3.69-1.1-.53-5.72-1.9-6.22-2.8l1.02,3.79-.03-1.03-1.02,3.79c-.56,1.29-2.86.52.81.8,1.4.11,2.77.47,4.12.84,3.16.87,6.12,2.17,9.05,3.62,6.16,3.05,12.19,6.36,18.2,9.69,12.12,6.72,24.01,13.86,35.68,21.34.6-4.57,1.19-9.14,1.79-13.71-16.17,2.36-30.71,13.42-37.38,28.32-3.92,8.76,7.37,15.61,12.95,7.57,4.07-5.85,7.05-12.26,9.09-19.09,2.63-8.78-8.89-12.09-13.71-5.78-5.1,6.68-10.19,13.36-15.29,20.04l12.95,7.57c5.52-11.12,9.55-22.79,11.76-35.02,1.18-6.51-7.35-13.75-12.54-7.3-6.66,8.29-12.66,17.02-17.61,26.45-2.24,4.27-4.01,8.88-6.67,12.92s-6.84,6.43-11.29,8.23c-19.29,7.82-40.66,8.53-60.03,16.2-6.65,2.63-7.56,12.16,0,14.46s14,6.04,19.46,11.44,9.62,12.42,16.74,16.29c7.57,4.11,16.32,4.26,24.71,4.02,9.36-.27,18.48.07,27.69,1.92-1.1-4.18-2.21-8.36-3.31-12.54-2.7,2.32-5.88,3.56-9.42,3.77l7.5,7.5c.34-3.08-.81-5.86-2.62-8.26-1.38-1.83-4.74-3.49-5.67-5.51-.47-1.02.45-3.82.8-5.23.85-3.46,1.63-6.87,1.63-10.46.01-7.01-10.74-10.78-13.98-3.79-4.59,9.95-7.89,20.21-9.54,31.05-1.15,7.57,6.48,12.17,12.54,7.3,2.31-1.86,4.61-3.71,6.92-5.57,5.6-4.51.42-12.27-5.3-12.8-3.41-.32-6.82-.63-10.22-.95-1.55-.14-3.1-.29-4.65-.43l-1.86-.17c-2.88-.52-2.54-.04,1.03,1.46l1.02,3.79c-.01-.47,3.26-4.19,4.05-5.2,1.9-2.45,3.79-4.9,5.69-7.36,3.66-4.73,1.86-13.05-5.3-12.8-5.27.18-9.72,2.61-12.31,7.29-3.34,6.05,2.15,12.19,8.47,11.02,13.58-2.52,26.56-7.37,38.55-14.22l-10.26-10.26-7.09,11.4,13.98,3.79,1.37-15.39c.65-7.29-10.86-10.4-13.98-3.79-7.39,15.71-11.67,32.25-12.73,49.58l9.49-7.23-4.9-1.06c1.75,3.08,3.49,6.15,5.24,9.23,1.67-7.39,8.28-11.61,14.54-15.02,7.74-4.21,16.09-6.8,24.75-8.26-1.93-4.57-3.85-9.14-5.78-13.71-13.63,9.71-24.79,22.15-32.5,37.05-2.59,5.01.58,11.23,6.48,11.29,15.25.14,25.03-12.61,32.04-24.57,8.4-14.32,14.72-29.87,18.9-45.92l-14.46-3.99c-1.8,8.39-3,16.92-3.43,25.5-.37,7.22-1.02,15.56,1.65,22.43,2.51,6.46,8.5,11.35,15.74,9.34,7.24-2,10.58-10.05,13.5-16.23,6.83-14.46,10.99-29.86,12.44-45.78,1.28-14.13-.48-32.79-16.78-37.47-8.75-2.51-16.27,2.1-22.65,7.61-7.44,6.43-14.76,13.01-22.14,19.51-7.26,6.4,3.39,16.97,10.61,10.61h0Z"/>
      <path class="cls-2" d="m297.93,211.74c6.47.97,12.76,4.15,18.74,6.71,6.55,2.8,13.03,5.79,19.43,8.93,12.76,6.26,24.85,13.99,38.01,19.39,7.83,3.21,13.36-9.96,5.78-13.71-9.15-4.53-18.09-9.43-26.83-14.71-8.28-5.01-15.83,7.96-7.57,12.95,8.74,5.28,17.68,10.18,26.83,14.71,1.93-4.57,3.85-9.14,5.78-13.71-13.03-5.35-25.06-13.4-37.77-19.5-6.15-2.95-12.37-5.74-18.65-8.4s-12.93-6.1-19.75-7.13c-4.03-.61-8.02,1.01-9.23,5.24-1.01,3.53,1.24,8.62,5.24,9.23h0Z"/>
      <path class="cls-2" d="m334.65,147.96c7.86-1.89,15.43,1.71,22.15,5.48s13.1,7.68,20.31,10.36c4.04,1.5,8.26,2.51,12.2,4.24s7.41,3.95,10.99,6.05c7.75,4.55,15.5,9.1,23.25,13.65,14.48,8.5,28.8,18.24,44.27,24.85,6.61,2.82,14.79,3.72,20.53,8.16,3.04,2.35,5.58,5.13,9.11,6.82,1.34.64,2.74,1.12,4.14,1.6.81.25,1.61.51,2.41.79.54.31.53.33-.02.06,2.16-3.76,4.32-7.52,6.48-11.29-17.67,1.03-35.25-2.21-52.55-5.48-7.35-1.39-14.71-3.02-21.73-5.65-7.59-2.84-14.3-7.36-20.71-12.26-12.34-9.42-24.56-17.5-38.52-24.35-13.66-6.71-27.89-13.02-39.54-23.01-4.42-3.78-13.47-1.73-12.8,5.3,1.02,10.8,11.75,18.38,19.93,24.31,8.85,6.42,18.64,11.4,28.46,16.16,9.86,4.77,19.83,9.34,29.31,14.85,10.98,6.39,21.31,13.8,31.42,21.47l3.79-13.98c-7.04.9-13.94.31-20.45-2.67v12.95c7.45-5.42,15.76-8.38,25-8.45,6-.04,10.55-8.52,5.3-12.8-6.06-4.94-12.68-8.73-19.4-12.66-6.33-3.7-11.34-7.88-16.64-12.89-5.86-5.55-12.53-8.13-19.86-11.15s-14.54-7.21-21.4-11.5c-8.21-5.13-15.75,7.84-7.57,12.95,6.44,4.03,13.02,7.81,19.97,10.9s13.86,5.08,19.46,10.59c5.22,5.14,10.76,9.47,17.06,13.22,5.99,3.57,12.35,6.72,17.78,11.15l5.3-12.8c-11.7.08-23.09,3.59-32.57,10.5-4.06,2.95-5.63,10.37,0,12.95,8.9,4.07,18.25,5.96,28.03,4.72,7.59-.97,9.94-9.3,3.79-13.98-17.32-13.15-35.3-24.14-54.9-33.53-8.7-4.16-17.42-8.31-25.69-13.3-3.96-2.39-7.87-4.94-11.46-7.86-1.84-1.49-3.62-3.07-5.33-4.72-.93-.9-4.2-3.29-4.31-4.45l-12.8,5.3c12.31,10.55,26.63,17.56,41.09,24.63,7.43,3.63,14.85,7.34,21.86,11.75,6.87,4.33,13.07,9.53,19.55,14.39,13.92,10.43,29.36,15.56,46.32,18.67,18.03,3.31,36.43,6.77,54.83,5.7,5.62-.33,9.42-6.13,6.48-11.29-3.75-6.57-11.44-6.65-16.78-11.24-6.97-5.99-14.15-7.85-22.61-10.8s-15.72-7.57-23.18-11.95c-8.32-4.89-16.65-9.78-24.97-14.66-8.25-4.85-16.48-9.75-24.77-14.54s-16.55-6.92-25.09-10.49c-7.99-3.34-14.98-8.69-22.92-12.16s-17.02-5.24-25.97-3.1-5.41,16.72,3.99,14.46h0Z"/>
    </g>
    <g>
      <path class="cls-1" d="m60.74,63.35c-9.25,19.56-21.38,60.34-1.12,74.76h.02c8.45,5.94,28.22,15.89,53.25,28.51,36.45,18.35,81.81,41.19,121.08,65.73,43.68,27.3,54.19,35.02,68.75,45.7,7.64,5.6,16.29,11.96,31.43,22.35,9.12,6.26,18.63,12.11,28.2,17.61,15.94,9.16,32.08,17.37,46.97,24.94,19.04,9.68,35.49,18.04,46.33,25.75,24.67,17.55,68.44,38.99,68.88,39.2v-.02c.08.03.16.08.23.1,38,15.14,72.74-61.18,74.2-64.42,10.66-23.78,18.71-65.01-2.78-81.08-.09-.06-.18-.1-.27-.15v-.02c-.82-.5-82.39-49.77-124.9-70.84-37.71-18.71-156.47-80.34-200.47-108.32-28.39-18.59-111.25-71.79-124.66-79.03l-.05-.03c-9.14-4.74-19.47-5.39-29.86-1.88-20.24,6.84-39.85,28.55-55.22,61.13Zm30.65-36c50.43-8.52,113.09,34.89,150.43,64.65,31.82,25.36,63.14,48.32,95.87,71.07,34.18,23.76,69.31,46.07,108.07,61.8,39.93,16.2,72.45,30.55,104.93,60.56-4.05,5.6-8.12,12.02-12.17,19.24-.14-.14-.28-.27-.41-.35-32.69-19.81-62.29-42.4-94.49-63.02-50.52-32.33-125.18-48.56-161.87-91.77-29.43-34.66-63.13-67.65-104.65-87.38-16.33-7.76-33.8-15.47-52.26-15.56-16.5-.07-34.09,5.66-50.56,4.71,5.38-9.24,11.12-17.35,17.12-23.97Zm163.42,53.12c32.45,37.22,84.21,64.18,125.47,88.67,60.54,35.93,125.87,62.37,186.34,98.55-4.89,4.08-9.9,9.58-14.95,16.4-31.23-28.84-61.63-43.28-100.13-58.9-46.66-18.93-87.95-45.93-128.89-74.7-37.3-26.22-72.13-57.12-110.33-81.79-32.62-21.07-76.94-48.8-118.07-44.27,7.75-7.87,15.78-13.52,23.74-16.21,8.83-2.99,17.21-2.48,24.89,1.5,11.71,6.4,77.12,48.19,111.93,70.76Zm311.47,254.79c1.25-.9-16.91,4.93-17.83,5.24-.95.32-2.16.75-3.52,1.26,4.24-10.85,9.55-22.77,18.26-30.48,4.16-3.68,16.38-12.17,15.88,5.63-.17,5.79-1.29,11.33-3.39,16.72-3.44,8.83-7.56,17.98-13.31,25.55-2.28,3.02-4.73,6.47-7.97,8.56-11.71,7.55-13.98-5.16-12.85-13.81,8.49-6.53,17-13.09,24.73-18.68Zm-23.58,7.35c-2.57.96-5.46,2.09-8.25,3.18,6.51-19.25,16.45-44.4,33.6-56.42,12.57-8.82,25.82.87,23.76,17.78-1.13,9.21-3.29,17.93-6.96,26.51-5.25,12.29-11.01,25.02-19.16,35.69-4.3,5.62-9.44,12.77-16.22,15.65-16.74,7.11-20.36-10.06-19.27-22.39,2.96-2.25,5.97-4.55,9-6.88-.78,7.81.29,21.03,12.05,15.8,13.68-6.08,23.11-26.35,27.02-40.1,1.69-5.91,6.81-27.88-4.99-27.19-15.13.89-26.18,26.93-30.6,38.36Zm-26.81,25.36c-56.5-37.05-112.99-74.1-169.48-111.15-30.64-20.1-61.01-38.68-91.66-58.78,73.49,42.6,127.85,73.79,201.21,116.62,19.66,11.48,48.6,28.08,60.95,36.28,4.38,2.91,2.95,2.61,6.83,1.35.09-.03.19-.07.28-.09l.14.05s.02-.08.03-.11c9.12-3.03,22.84-9.15,31.78-12.18.82-.27,1.45-.53,2.14-.8-.48.32-.9.58-1.44.97-12.78,9.21-27.89,18.6-40.78,27.84Zm63.94-107.9c-3.64,1.09-7.4,3.09-11.24,6.02-56.46-33.97-117.66-58.37-174.43-91.53-41.74-24.37-96-51.92-130.96-88.63,1.37.9,2.7,1.76,3.9,2.55,7.26,4.62,16.55,10.15,27.16,16.25,54,31.02,142.34,76.76,173.93,92.42,32.16,15.95,86.92,48.18,111.65,62.92Zm-59.1,109.58c2.56-1.87,5.19-3.82,7.88-5.85-.68,11.89,1.52,31.32,18.64,24.04,22.86-9.71,39.31-45.27,44.16-68.6,1.8-8.66,4.43-34.95-11.33-35.96-25.6-1.64-41.58,44.9-47.72,63.31-2.8,1.11-5.39,2.12-7.28,2.87,2.84-8.45,7.01-18.09,10.19-24.74,23.1-48.34,40.73-57.29,47.24-58.89,3.35-.83,6.32-.4,8.9,1.15.51.31.83.51,1.02.61,18.3,13.78,10.18,52.29.74,73.36-9.26,20.65-39.17,71.87-66.07,61.14-9.72-3.83-8.23-21.64-6.37-32.46ZM55.84,99.7c35.43,25.95,72.04,47.64,110.87,68.04,45.83,24.08,83.86,53.3,125.76,82.9,70.38,49.72,144.67,94.36,220.62,135.04.13,3.99.65,7.33,1.48,10.09-14.79-7.64-39.2-20.79-55.28-32.22-11.23-7.99-27.86-16.45-47.13-26.24-23.67-12.04-50.5-25.67-74.46-42.12-15.05-10.34-23.66-16.66-31.26-22.24-14.66-10.77-25.26-18.54-69.14-45.96-39.51-24.7-85.02-47.61-121.59-66.02-24.79-12.49-44.39-22.35-52.44-28.02-8.51-6.06-9.69-19.2-7.45-33.26Zm8.84-29.69c9.9,3.64,27.06,7.32,35.78,11.55,16.64,8.05,25.46,17.65,39.65,29.28,14.64,11.99,25.43,24.13,42.43,32.83,22.19,11.35,44.6,15.35,68.52,21.39,25.41,6.41,39.71,23.41,60.43,37.44,37.02,25.07,78.88,42.25,116.8,66.17,32.58,20.55,64.49,42.15,96.91,62.95-2.37,5.53-4.75,11.59-6.54,17.09-4.94-2.86-9.88-5.73-14.82-8.59-32.4-18.78-64.8-37.56-97.21-56.34-54.76-31.74-109.65-63.28-164.29-95.22-17.05-9.96-17.89-9.31-1.93,1.16,91.31,59.89,182.63,119.76,273.94,179.65-.91,5.51-1.33,10.29-1.32,14.4-.1-.09-.21-.18-.28-.22-75.92-40.63-150.69-85.07-220.8-135.14-34.96-24.96-66.17-51.15-104.27-71.53-45.6-24.39-89.78-48.3-131.6-78.86,1.73-9.68,4.99-19.68,8.58-28.03Zm7.67-15.41c15.65,2.09,31.48-4.49,47.22-4.41,28.71.13,53.29,8.82,77.37,23.95,63.67,40,74.76,83.62,132.71,114.22,42.51,22.45,86.46,36.1,126.92,63.09,27.08,18.06,53.17,38.11,80.95,55.07-2.67,4.85-5.32,9.99-7.96,15.5-1.08,2.24-2.26,4.85-3.48,7.63-35.18-22.54-69.63-46.18-105.18-68.15-39.69-24.52-86.1-41.64-122.19-71.08-14.17-11.57-24.61-21.53-42.21-26.98-31.77-9.86-62.31-11.6-90.13-32.95-19.98-15.33-38.52-33.51-59.98-46.79-13.71-8.48-27.34-9.46-41.35-14.46.47-1.08.95-2.15,1.43-3.17,1.88-4,3.85-7.81,5.88-11.46Z"/>
      <path class="cls-1" d="m143.91,80.72s-.03.06-.05.1c2.13,7.28,12.22,11.46,16.13,14.18,12.42,8.63,24.83,17.27,37.33,25.77,4.03,2.47,23.66,14.21,25.36,3.73.7-4.27-9.97-8.24-12.02-9.12-16.38-7.01-27.09-18.69-40.94-29.38-6.78-5.23-26.94-11.6-25.82-5.28Zm9.37-.52c3.44.55,7.84,2.4,11.82,4.85,10.25,7.18,16.14,13.81,26.1,21.25,7.68,5.74,14.85,8.25,20.06,10.4,11.9,4.9,13.05,12.79,1.81,10.06-5.79-1.27-11.11-3.64-15.95-7.12-9.42-6.4-18.75-12.89-28.11-19.37-5.68-3.95-11.38-7.87-17.04-11.85-.75-.53-14.95-10.74,1.32-8.22Z"/>
      <path class="cls-1" d="m131.72,88.58c8.7,9.39,24.75,15.92,35.59,22.55,10.07,6.17,20.3,12.12,30.21,18.54.07.05.12.02.19.06.04.03.07.1.11.12,8.76,5.1,24.35,12.29,34.35,5.4,5.19-3.57,5.48-7.83,1.06-12.36-10.01-10.26-22.68-17.21-34.04-25.82-11.96-9.07-23.93-19.17-37.23-26.24-11.97-6.37-44.87,1.95-30.23,17.75Zm26.69-17.58c16.33,8.69,30.07,20.99,45.17,31.49,8.5,5.9,18.38,11.27,25.63,18.7,10.93,11.2-2.42,14.92-10.31,14.04-7.67-.63-14.58-3.05-20.77-7.25-12.75-8.25-25.93-15.86-38.85-23.84-7.43-4.59-14.91-9.12-22.18-13.96-17.19-11.45,10.56-24.9,21.31-19.18Z"/>
    </g>
  </g>
</svg>