<?xml version="1.0" standalone="no"?>
<svg xmlns:xlink="http://www.w3.org/1999/xlink" id="wave" style="transform:rotate(0deg); transition: 0.3s" viewBox="0 0 1440 490" version="1.1" xmlns="http://www.w3.org/2000/svg"><defs><linearGradient id="sw-gradient-0" x1="0" x2="0" y1="1" y2="0"><stop stop-color="rgba(52, 78, 65, 1)" offset="0%"/><stop stop-color="rgba(139, 171, 80, 1)" offset="100%"/></linearGradient></defs><path style="transform:translate(0, 0px); opacity:1" fill="url(#sw-gradient-0)" d="M0,0L26.7,49C53.3,98,107,196,160,212.3C213.3,229,267,163,320,147C373.3,131,427,163,480,163.3C533.3,163,587,131,640,130.7C693.3,131,747,163,800,204.2C853.3,245,907,294,960,334.8C1013.3,376,1067,408,1120,408.3C1173.3,408,1227,376,1280,326.7C1333.3,278,1387,212,1440,196C1493.3,180,1547,212,1600,212.3C1653.3,212,1707,180,1760,163.3C1813.3,147,1867,147,1920,187.8C1973.3,229,2027,310,2080,294C2133.3,278,2187,163,2240,171.5C2293.3,180,2347,310,2400,326.7C2453.3,343,2507,245,2560,196C2613.3,147,2667,147,2720,147C2773.3,147,2827,147,2880,187.8C2933.3,229,2987,310,3040,302.2C3093.3,294,3147,196,3200,147C3253.3,98,3307,98,3360,147C3413.3,196,3467,294,3520,334.8C3573.3,376,3627,359,3680,310.3C3733.3,261,3787,180,3813,138.8L3840,98L3840,490L3813.3,490C3786.7,490,3733,490,3680,490C3626.7,490,3573,490,3520,490C3466.7,490,3413,490,3360,490C3306.7,490,3253,490,3200,490C3146.7,490,3093,490,3040,490C2986.7,490,2933,490,2880,490C2826.7,490,2773,490,2720,490C2666.7,490,2613,490,2560,490C2506.7,490,2453,490,2400,490C2346.7,490,2293,490,2240,490C2186.7,490,2133,490,2080,490C2026.7,490,1973,490,1920,490C1866.7,490,1813,490,1760,490C1706.7,490,1653,490,1600,490C1546.7,490,1493,490,1440,490C1386.7,490,1333,490,1280,490C1226.7,490,1173,490,1120,490C1066.7,490,1013,490,960,490C906.7,490,853,490,800,490C746.7,490,693,490,640,490C586.7,490,533,490,480,490C426.7,490,373,490,320,490C266.7,490,213,490,160,490C106.7,490,53,490,27,490L0,490Z"/></svg>